<svg width="43" height="43" viewBox="0 0 43 43" fill="none" xmlns="http://www.w3.org/2000/svg">
<g clip-path="url(#clip0_3056_12414)">
<path d="M26.6567 14.3215L30.8334 2.83333C30.8334 2.83333 30.3691 2.83567 29.6667 2.873V0.5H27.3334V3.08883C24.6839 3.44117 21.5001 4.28817 21.5001 6.33333C21.5001 4.28817 18.3162 3.44117 15.6667 3.08883V0.5H13.3334V2.873C12.6311 2.83567 12.1667 2.83333 12.1667 2.83333L16.3446 14.3215L1.66675 30.4168C1.66675 30.4168 8.66675 42.5 21.5001 42.5C34.3334 42.5 41.3334 30.4168 41.3334 30.4168L26.6567 14.3215Z" fill="#55ACEE"/>
<path d="M15.6667 13.3334H27.3334V15.6667H15.6667V13.3334Z" fill="#BBDDF5"/>
<path d="M18.0001 15.6666C18.0001 15.6666 10.1438 25.1236 12.1073 26.1736C14.072 27.2248 18.0001 15.6666 18.0001 15.6666ZM25.1121 15.6666C25.1121 15.6666 32.9685 25.1225 31.005 26.1748C29.0403 27.2248 25.1121 15.6666 25.1121 15.6666ZM21.5001 15.6666C21.5001 15.6666 19.1668 28.5 21.5001 28.5C23.8335 28.5 21.5001 15.6666 21.5001 15.6666Z" fill="#3B88C3"/>
</g>
<defs>
<clipPath id="clip0_3056_12414">
<rect width="42" height="42" fill="white" transform="translate(0.5 0.5)"/>
</clipPath>
</defs>
</svg>
