<svg width="19" height="25" viewBox="0 0 19 25" fill="none" xmlns="http://www.w3.org/2000/svg">
<path d="M4.28 11.956C2.27467 10.8893 1.272 9.21467 1.272 6.932C1.272 5.78 1.57067 4.73467 2.168 3.796C2.76533 2.836 3.672 2.07867 4.888 1.524C6.104 0.947998 7.59733 0.659998 9.368 0.659998C11.1387 0.659998 12.6213 0.947998 13.816 1.524C15.032 2.07867 15.9387 2.836 16.536 3.796C17.1333 4.73467 17.432 5.78 17.432 6.932C17.432 8.084 17.1547 9.08667 16.6 9.94C16.0667 10.7933 15.3413 11.4653 14.424 11.956C15.576 12.5107 16.4613 13.2787 17.08 14.26C17.6987 15.22 18.008 16.3507 18.008 17.652C18.008 19.1667 17.624 20.4787 16.856 21.588C16.088 22.676 15.0427 23.508 13.72 24.084C12.4187 24.66 10.968 24.948 9.368 24.948C7.768 24.948 6.30667 24.66 4.984 24.084C3.68267 23.508 2.648 22.676 1.88 21.588C1.112 20.4787 0.728 19.1667 0.728 17.652C0.728 16.3293 1.03733 15.188 1.656 14.228C2.27467 13.2467 3.14933 12.4893 4.28 11.956ZM12.12 7.764C12.12 6.88933 11.864 6.21733 11.352 5.748C10.8613 5.25733 10.2 5.012 9.368 5.012C8.536 5.012 7.864 5.25733 7.352 5.748C6.86133 6.23867 6.616 6.92133 6.616 7.796C6.616 8.628 6.872 9.28933 7.384 9.78C7.896 10.2493 8.55733 10.484 9.368 10.484C10.1787 10.484 10.84 10.2387 11.352 9.748C11.864 9.25733 12.12 8.596 12.12 7.764ZM9.368 14.324C8.36533 14.324 7.55467 14.6013 6.936 15.156C6.31733 15.6893 6.008 16.436 6.008 17.396C6.008 18.292 6.30667 19.028 6.904 19.604C7.52267 20.18 8.344 20.468 9.368 20.468C10.392 20.468 11.192 20.18 11.768 19.604C12.3653 19.028 12.664 18.292 12.664 17.396C12.664 16.4573 12.3547 15.7107 11.736 15.156C11.1387 14.6013 10.3493 14.324 9.368 14.324Z" fill="#10A19D"/>
</svg>
