<svg width="43" height="43" viewBox="0 0 43 43" fill="none" xmlns="http://www.w3.org/2000/svg">
<path d="M4.50969 28.0625C5.27443 28.0625 5.89438 27.4425 5.89438 26.6778C5.89438 25.913 5.27443 25.2931 4.50969 25.2931C3.74495 25.2931 3.125 25.913 3.125 26.6778C3.125 27.4425 3.74495 28.0625 4.50969 28.0625Z" fill="url(#paint0_radial_3056_12159)"/>
<path d="M4.50969 28.0625C5.27443 28.0625 5.89438 27.4425 5.89438 26.6778C5.89438 25.913 5.27443 25.2931 4.50969 25.2931C3.74495 25.2931 3.125 25.913 3.125 26.6778C3.125 27.4425 3.74495 28.0625 4.50969 28.0625Z" fill="url(#paint1_radial_3056_12159)"/>
<path d="M4.50969 25.4375C5.27443 25.4375 5.89438 24.8175 5.89438 24.0528C5.89438 23.288 5.27443 22.6681 4.50969 22.6681C3.74495 22.6681 3.125 23.288 3.125 24.0528C3.125 24.8175 3.74495 25.4375 4.50969 25.4375Z" fill="url(#paint2_radial_3056_12159)"/>
<path d="M19.3672 9.6875H30.6875C31.7318 9.6875 32.7333 10.1023 33.4717 10.8408C34.2102 11.5792 34.625 12.5807 34.625 13.625V35.9375C34.625 36.9818 34.2102 37.9833 33.4717 38.7217C32.7333 39.4602 31.7318 39.875 30.6875 39.875H19.3672V9.6875Z" fill="url(#paint3_linear_3056_12159)"/>
<path d="M19.3672 9.6875H30.6875C31.7318 9.6875 32.7333 10.1023 33.4717 10.8408C34.2102 11.5792 34.625 12.5807 34.625 13.625V35.9375C34.625 36.9818 34.2102 37.9833 33.4717 38.7217C32.7333 39.4602 31.7318 39.875 30.6875 39.875H19.3672V9.6875Z" fill="url(#paint4_radial_3056_12159)"/>
<path d="M19.3672 9.6875H30.6875C31.7318 9.6875 32.7333 10.1023 33.4717 10.8408C34.2102 11.5792 34.625 12.5807 34.625 13.625V35.9375C34.625 36.9818 34.2102 37.9833 33.4717 38.7217C32.7333 39.4602 31.7318 39.875 30.6875 39.875H19.3672V9.6875Z" fill="url(#paint5_radial_3056_12159)"/>
<path d="M19.3672 9.6875H30.6875C31.7318 9.6875 32.7333 10.1023 33.4717 10.8408C34.2102 11.5792 34.625 12.5807 34.625 13.625V35.9375C34.625 36.9818 34.2102 37.9833 33.4717 38.7217C32.7333 39.4602 31.7318 39.875 30.6875 39.875H19.3672V9.6875Z" fill="url(#paint6_linear_3056_12159)"/>
<path d="M19.3672 9.6875H30.6875C31.7318 9.6875 32.7333 10.1023 33.4717 10.8408C34.2102 11.5792 34.625 12.5807 34.625 13.625V35.9375C34.625 36.9818 34.2102 37.9833 33.4717 38.7217C32.7333 39.4602 31.7318 39.875 30.6875 39.875H19.3672V9.6875Z" fill="url(#paint7_radial_3056_12159)"/>
<path d="M19.3672 9.6875H30.6875C31.7318 9.6875 32.7333 10.1023 33.4717 10.8408C34.2102 11.5792 34.625 12.5807 34.625 13.625V35.9375C34.625 36.9818 34.2102 37.9833 33.4717 38.7217C32.7333 39.4602 31.7318 39.875 30.6875 39.875H19.3672V9.6875Z" fill="url(#paint8_radial_3056_12159)"/>
<path d="M19.3672 9.6875H30.6875C31.7318 9.6875 32.7333 10.1023 33.4717 10.8408C34.2102 11.5792 34.625 12.5807 34.625 13.625V35.9375C34.625 36.9818 34.2102 37.9833 33.4717 38.7217C32.7333 39.4602 31.7318 39.875 30.6875 39.875H19.3672V9.6875Z" fill="url(#paint9_radial_3056_12159)"/>
<path d="M19.3672 9.6875H30.6875C31.7318 9.6875 32.7333 10.1023 33.4717 10.8408C34.2102 11.5792 34.625 12.5807 34.625 13.625V35.9375C34.625 36.9818 34.2102 37.9833 33.4717 38.7217C32.7333 39.4602 31.7318 39.875 30.6875 39.875H19.3672V9.6875Z" fill="url(#paint10_linear_3056_12159)"/>
<path d="M19.5312 39.875C27.8673 39.875 34.625 33.1173 34.625 24.7812C34.625 16.4452 27.8673 9.6875 19.5312 9.6875C11.1952 9.6875 4.4375 16.4452 4.4375 24.7812C4.4375 33.1173 11.1952 39.875 19.5312 39.875Z" fill="url(#paint11_radial_3056_12159)"/>
<path d="M19.5312 39.875C27.8673 39.875 34.625 33.1173 34.625 24.7812C34.625 16.4452 27.8673 9.6875 19.5312 9.6875C11.1952 9.6875 4.4375 16.4452 4.4375 24.7812C4.4375 33.1173 11.1952 39.875 19.5312 39.875Z" fill="url(#paint12_radial_3056_12159)"/>
<path d="M19.5312 39.875C27.8673 39.875 34.625 33.1173 34.625 24.7812C34.625 16.4452 27.8673 9.6875 19.5312 9.6875C11.1952 9.6875 4.4375 16.4452 4.4375 24.7812C4.4375 33.1173 11.1952 39.875 19.5312 39.875Z" fill="url(#paint13_radial_3056_12159)"/>
<path d="M19.5312 39.875C27.8673 39.875 34.625 33.1173 34.625 24.7812C34.625 16.4452 27.8673 9.6875 19.5312 9.6875C11.1952 9.6875 4.4375 16.4452 4.4375 24.7812C4.4375 33.1173 11.1952 39.875 19.5312 39.875Z" fill="url(#paint14_radial_3056_12159)"/>
<path d="M9.29376 13.6907C10.9306 15.0204 12.2499 16.6988 13.1552 18.6035C14.0605 20.5082 14.5291 22.591 14.5267 24.6999C14.5267 29.1847 12.4464 33.1826 9.19795 35.784C7.69304 34.374 6.49394 32.6697 5.67505 30.777C4.85615 28.8843 4.43493 26.8436 4.43751 24.7813C4.43521 22.6972 4.86564 20.6354 5.70157 18.7263C6.53751 16.8172 7.76072 15.1025 9.29376 13.6907Z" fill="url(#paint15_radial_3056_12159)"/>
<g filter="url(#filter0_f_3056_12159)">
<path d="M23.6131 29.0036V21.2953C23.6134 21.1167 23.5616 20.942 23.4641 20.7924C23.3665 20.6428 23.2275 20.5249 23.0641 20.453C22.9006 20.3812 22.7197 20.3585 22.5436 20.3878C22.3674 20.4171 22.2037 20.4971 22.0723 20.6181L18.1374 24.2314C18.0022 24.3553 17.8946 24.5062 17.8213 24.6744C17.748 24.8425 17.7108 25.0241 17.7121 25.2075C17.7133 25.3909 17.753 25.572 17.8285 25.7391C17.904 25.9062 18.0137 26.0557 18.1505 26.1778L22.0815 29.6887C22.2137 29.8067 22.3772 29.8839 22.5524 29.9111C22.7275 29.9382 22.9067 29.9141 23.0685 29.8417C23.2302 29.7693 23.3676 29.6517 23.464 29.503C23.5604 29.3542 23.6117 29.1808 23.6118 29.0036H23.6131Z" fill="#4D82FD"/>
</g>
<path d="M24.125 28.6558V20.9462C24.1253 20.7676 24.0734 20.5929 23.9759 20.4433C23.8784 20.2937 23.7394 20.1758 23.576 20.1039C23.4125 20.0321 23.2316 20.0094 23.0555 20.0387C22.8793 20.068 22.7155 20.148 22.5841 20.2689L18.6506 23.8836C18.5156 24.0075 18.4081 24.1583 18.335 24.3263C18.2619 24.4943 18.2247 24.6758 18.226 24.859C18.2272 25.0423 18.2668 25.2232 18.3422 25.3902C18.4176 25.5572 18.5271 25.7066 18.6637 25.8287L22.5946 29.3409C22.7269 29.4589 22.8904 29.5361 23.0656 29.5633C23.2407 29.5904 23.4199 29.5663 23.5817 29.4939C23.7434 29.4215 23.8808 29.3038 23.9772 29.1551C24.0736 29.0064 24.1249 28.833 24.125 28.6558Z" fill="url(#paint16_linear_3056_12159)"/>
<path d="M24.125 28.6558V20.9462C24.1253 20.7676 24.0734 20.5929 23.9759 20.4433C23.8784 20.2937 23.7394 20.1758 23.576 20.1039C23.4125 20.0321 23.2316 20.0094 23.0555 20.0387C22.8793 20.068 22.7155 20.148 22.5841 20.2689L18.6506 23.8836C18.5156 24.0075 18.4081 24.1583 18.335 24.3263C18.2619 24.4943 18.2247 24.6758 18.226 24.859C18.2272 25.0423 18.2668 25.2232 18.3422 25.3902C18.4176 25.5572 18.5271 25.7066 18.6637 25.8287L22.5946 29.3409C22.7269 29.4589 22.8904 29.5361 23.0656 29.5633C23.2407 29.5904 23.4199 29.5663 23.5817 29.4939C23.7434 29.4215 23.8808 29.3038 23.9772 29.1551C24.0736 29.0064 24.1249 28.833 24.125 28.6558Z" fill="url(#paint17_linear_3056_12159)"/>
<path d="M24.125 28.6558V20.9462C24.1253 20.7676 24.0734 20.5929 23.9759 20.4433C23.8784 20.2937 23.7394 20.1758 23.576 20.1039C23.4125 20.0321 23.2316 20.0094 23.0555 20.0387C22.8793 20.068 22.7155 20.148 22.5841 20.2689L18.6506 23.8836C18.5156 24.0075 18.4081 24.1583 18.335 24.3263C18.2619 24.4943 18.2247 24.6758 18.226 24.859C18.2272 25.0423 18.2668 25.2232 18.3422 25.3902C18.4176 25.5572 18.5271 25.7066 18.6637 25.8287L22.5946 29.3409C22.7269 29.4589 22.8904 29.5361 23.0656 29.5633C23.2407 29.5904 23.4199 29.5663 23.5817 29.4939C23.7434 29.4215 23.8808 29.3038 23.9772 29.1551C24.0736 29.0064 24.1249 28.833 24.125 28.6558Z" fill="url(#paint18_radial_3056_12159)"/>
<path d="M10.2414 22.6694C10.6038 22.6694 10.8976 22.3756 10.8976 22.0132C10.8976 21.6507 10.6038 21.3569 10.2414 21.3569C9.87896 21.3569 9.58514 21.6507 9.58514 22.0132C9.58514 22.3756 9.87896 22.6694 10.2414 22.6694Z" fill="url(#paint19_radial_3056_12159)"/>
<path d="M10.2414 22.6694C10.6038 22.6694 10.8976 22.3756 10.8976 22.0132C10.8976 21.6507 10.6038 21.3569 10.2414 21.3569C9.87896 21.3569 9.58514 21.6507 9.58514 22.0132C9.58514 22.3756 9.87896 22.6694 10.2414 22.6694Z" fill="url(#paint20_radial_3056_12159)"/>
<path d="M10.2414 22.6694C10.6038 22.6694 10.8976 22.3756 10.8976 22.0132C10.8976 21.6507 10.6038 21.3569 10.2414 21.3569C9.87896 21.3569 9.58514 21.6507 9.58514 22.0132C9.58514 22.3756 9.87896 22.6694 10.2414 22.6694Z" fill="url(#paint21_linear_3056_12159)"/>
<path d="M39.9577 21.4409C39.9577 20.5589 38.9523 19.5037 37.5689 20.1862C36.6732 20.7052 35.9297 21.4506 35.413 22.3476C34.8963 23.2447 34.6245 24.2618 34.625 25.2971C34.625 27.4784 35.8076 29.3842 37.5676 30.4066C38.5638 30.9854 39.9564 30.3108 39.9564 29.3173V21.4423L39.9577 21.4409Z" fill="url(#paint22_radial_3056_12159)"/>
<path d="M39.9577 21.4409C39.9577 20.5589 38.9523 19.5037 37.5689 20.1862C36.6732 20.7052 35.9297 21.4506 35.413 22.3476C34.8963 23.2447 34.6245 24.2618 34.625 25.2971C34.625 27.4784 35.8076 29.3842 37.5676 30.4066C38.5638 30.9854 39.9564 30.3108 39.9564 29.3173V21.4423L39.9577 21.4409Z" fill="url(#paint23_radial_3056_12159)"/>
<path d="M39.9577 21.4409C39.9577 20.5589 38.9523 19.5037 37.5689 20.1862C36.6732 20.7052 35.9297 21.4506 35.413 22.3476C34.8963 23.2447 34.6245 24.2618 34.625 25.2971C34.625 27.4784 35.8076 29.3842 37.5676 30.4066C38.5638 30.9854 39.9564 30.3108 39.9564 29.3173V21.4423L39.9577 21.4409Z" fill="url(#paint24_radial_3056_12159)"/>
<defs>
<filter id="filter0_f_3056_12159" x="16.962" y="19.6254" width="7.40112" height="11.0465" filterUnits="userSpaceOnUse" color-interpolation-filters="sRGB">
<feFlood flood-opacity="0" result="BackgroundImageFix"/>
<feBlend mode="normal" in="SourceGraphic" in2="BackgroundImageFix" result="shape"/>
<feGaussianBlur stdDeviation="0.375" result="effect1_foregroundBlur_3056_12159"/>
</filter>
<radialGradient id="paint0_radial_3056_12159" cx="0" cy="0" r="1" gradientUnits="userSpaceOnUse" gradientTransform="translate(3.125 27.3852) rotate(-22.3286) scale(1.86229 2.86996)">
<stop stop-color="#6D5A93"/>
<stop offset="1" stop-color="#5F498C"/>
</radialGradient>
<radialGradient id="paint1_radial_3056_12159" cx="0" cy="0" r="1" gradientUnits="userSpaceOnUse" gradientTransform="translate(4.51104 25.1089) rotate(98.219) scale(0.932427 1.04213)">
<stop stop-color="#442E79"/>
<stop offset="1" stop-color="#442E79" stop-opacity="0"/>
</radialGradient>
<radialGradient id="paint2_radial_3056_12159" cx="0" cy="0" r="1" gradientUnits="userSpaceOnUse" gradientTransform="translate(2.96094 24.0528) scale(2.13281 3.28687)">
<stop stop-color="#6D5A93"/>
<stop offset="1" stop-color="#5F498C"/>
</radialGradient>
<linearGradient id="paint3_linear_3056_12159" x1="40.9421" y1="23.3047" x2="27.4062" y2="23.3047" gradientUnits="userSpaceOnUse">
<stop stop-color="#FFE359"/>
<stop offset="1" stop-color="#FFBE3E"/>
</linearGradient>
<radialGradient id="paint4_radial_3056_12159" cx="0" cy="0" r="1" gradientUnits="userSpaceOnUse" gradientTransform="translate(23.0592 42.0078) rotate(-24.2093) scale(11.6024 16.4462)">
<stop stop-color="#FF835D"/>
<stop offset="1" stop-color="#FF835D" stop-opacity="0"/>
</radialGradient>
<radialGradient id="paint5_radial_3056_12159" cx="0" cy="0" r="1" gradientUnits="userSpaceOnUse" gradientTransform="translate(29.7849 27.7758) rotate(46.65) scale(7.05051 9.99393)">
<stop stop-color="#FF835D"/>
<stop offset="1" stop-color="#FF835D" stop-opacity="0"/>
</radialGradient>
<linearGradient id="paint6_linear_3056_12159" x1="34.625" y1="40.736" x2="34.625" y2="39.1374" gradientUnits="userSpaceOnUse">
<stop offset="0.118" stop-color="#FF835D"/>
<stop offset="1" stop-color="#FF835D" stop-opacity="0"/>
</linearGradient>
<radialGradient id="paint7_radial_3056_12159" cx="0" cy="0" r="1" gradientUnits="userSpaceOnUse" gradientTransform="translate(12.6406 14.4453) rotate(48.13) scale(32.9378 21.6528)">
<stop offset="0.943" stop-color="#FF835D" stop-opacity="0"/>
<stop offset="1" stop-color="#FF835D"/>
</radialGradient>
<radialGradient id="paint8_radial_3056_12159" cx="0" cy="0" r="1" gradientUnits="userSpaceOnUse" gradientTransform="translate(33.395 11.7369) rotate(143.673) scale(5.19281 7.70515)">
<stop stop-color="#FFE65E"/>
<stop offset="0.654" stop-color="#FFE65E" stop-opacity="0"/>
</radialGradient>
<radialGradient id="paint9_radial_3056_12159" cx="0" cy="0" r="1" gradientUnits="userSpaceOnUse" gradientTransform="translate(36.1016 20.1061) rotate(-90) scale(7.95703 15.5039)">
<stop stop-color="#FFE65E"/>
<stop offset="1" stop-color="#FFE65E" stop-opacity="0"/>
</radialGradient>
<linearGradient id="paint10_linear_3056_12159" x1="25.5609" y1="8.78581" x2="25.7249" y2="10.5078" gradientUnits="userSpaceOnUse">
<stop stop-color="#FFB941"/>
<stop offset="1" stop-color="#FFB941" stop-opacity="0"/>
</linearGradient>
<radialGradient id="paint11_radial_3056_12159" cx="0" cy="0" r="1" gradientUnits="userSpaceOnUse" gradientTransform="translate(30.4421 13.2969) rotate(120.084) scale(27.4925 29.4431)">
<stop stop-color="#76CDFF"/>
<stop offset="1" stop-color="#5181FF"/>
</radialGradient>
<radialGradient id="paint12_radial_3056_12159" cx="0" cy="0" r="1" gradientUnits="userSpaceOnUse" gradientTransform="translate(19.5313 12.3952) rotate(90) scale(30.2695 23.5925)">
<stop offset="0.786" stop-color="#5A67FF" stop-opacity="0"/>
<stop offset="0.929" stop-color="#5A67FF"/>
</radialGradient>
<radialGradient id="paint13_radial_3056_12159" cx="0" cy="0" r="1" gradientUnits="userSpaceOnUse" gradientTransform="translate(37.9063 25.1921) rotate(180) scale(4.83984 8.09933)">
<stop offset="0.017" stop-color="#5A67FF"/>
<stop offset="1" stop-color="#5A67FF" stop-opacity="0"/>
</radialGradient>
<radialGradient id="paint14_radial_3056_12159" cx="0" cy="0" r="1" gradientUnits="userSpaceOnUse" gradientTransform="translate(10.8359 11.1641) rotate(49.8208) scale(4.83149 12.9207)">
<stop stop-color="#65AFE3"/>
<stop offset="1" stop-color="#65AFE3" stop-opacity="0"/>
</radialGradient>
<radialGradient id="paint15_radial_3056_12159" cx="0" cy="0" r="1" gradientUnits="userSpaceOnUse" gradientTransform="translate(1.32032 24.738) scale(31.3359 45.6484)">
<stop offset="0.065" stop-color="#80739F"/>
<stop offset="0.262" stop-color="#6F53A3"/>
</radialGradient>
<linearGradient id="paint16_linear_3056_12159" x1="24.125" y1="23.961" x2="18.6296" y2="23.961" gradientUnits="userSpaceOnUse">
<stop stop-color="#FFD65C"/>
<stop offset="1" stop-color="#FF8C42"/>
</linearGradient>
<linearGradient id="paint17_linear_3056_12159" x1="21.1745" y1="26.2172" x2="19.2438" y2="27.5704" gradientUnits="userSpaceOnUse">
<stop stop-color="#FF8C42" stop-opacity="0"/>
<stop offset="1" stop-color="#FF8C42"/>
</linearGradient>
<radialGradient id="paint18_radial_3056_12159" cx="0" cy="0" r="1" gradientUnits="userSpaceOnUse" gradientTransform="translate(24.125 21.2953) rotate(90) scale(5.90625 0.943333)">
<stop stop-color="#FFD65C"/>
<stop offset="1" stop-color="#FFD65C" stop-opacity="0"/>
</radialGradient>
<radialGradient id="paint19_radial_3056_12159" cx="0" cy="0" r="1" gradientUnits="userSpaceOnUse" gradientTransform="translate(10.4356 21.8019) rotate(125.838) scale(0.910695 0.811929)">
<stop offset="0.006" stop-color="#433437"/>
<stop offset="1" stop-color="#3B2838"/>
</radialGradient>
<radialGradient id="paint20_radial_3056_12159" cx="0" cy="0" r="1" gradientUnits="userSpaceOnUse" gradientTransform="translate(10.4858 21.8494) rotate(137.643) scale(0.471791 0.415065)">
<stop stop-color="#5C5051"/>
<stop offset="1" stop-color="#5C5051" stop-opacity="0"/>
</radialGradient>
<linearGradient id="paint21_linear_3056_12159" x1="10.1128" y1="21.4974" x2="9.66127" y2="21.2099" gradientUnits="userSpaceOnUse">
<stop stop-color="#5C5051" stop-opacity="0"/>
<stop offset="1" stop-color="#5C5051"/>
</linearGradient>
<radialGradient id="paint22_radial_3056_12159" cx="0" cy="0" r="1" gradientUnits="userSpaceOnUse" gradientTransform="translate(40.3672 25.2931) rotate(180) scale(5.74219 11.6279)">
<stop offset="0.329" stop-color="#FFC256"/>
<stop offset="1" stop-color="#FF8646"/>
</radialGradient>
<radialGradient id="paint23_radial_3056_12159" cx="0" cy="0" r="1" gradientUnits="userSpaceOnUse" gradientTransform="translate(39.9577 22.9359) rotate(90) scale(6.0293 1.6803)">
<stop stop-color="#FFD661"/>
<stop offset="1" stop-color="#FFD661" stop-opacity="0"/>
</radialGradient>
<radialGradient id="paint24_radial_3056_12159" cx="0" cy="0" r="1" gradientUnits="userSpaceOnUse" gradientTransform="translate(41.4343 25.2931) rotate(180) scale(7.05469 6.72656)">
<stop offset="0.892" stop-color="#F37539" stop-opacity="0"/>
<stop offset="1" stop-color="#F37539"/>
</radialGradient>
</defs>
</svg>
