<svg width="18" height="24" viewBox="0 0 18 24" fill="none" xmlns="http://www.w3.org/2000/svg">
<path d="M15.888 4.908H5.904V9.324C6.33067 8.85467 6.928 8.47067 7.696 8.172C8.464 7.87333 9.296 7.724 10.192 7.724C11.792 7.724 13.1147 8.08667 14.16 8.812C15.2267 9.53733 16.0053 10.476 16.496 11.628C16.9867 12.78 17.232 14.028 17.232 15.372C17.232 17.868 16.528 19.852 15.12 21.324C13.712 22.7747 11.728 23.5 9.168 23.5C7.46133 23.5 5.97867 23.212 4.72 22.636C3.46133 22.0387 2.49067 21.2173 1.808 20.172C1.12533 19.1267 0.752 17.9213 0.688 16.556H6.032C6.16 17.2173 6.46933 17.772 6.96 18.22C7.45067 18.6467 8.12267 18.86 8.976 18.86C9.97867 18.86 10.7253 18.54 11.216 17.9C11.7067 17.26 11.952 16.4067 11.952 15.34C11.952 14.2947 11.696 13.4947 11.184 12.94C10.672 12.3853 9.92533 12.108 8.944 12.108C8.21867 12.108 7.62133 12.2893 7.152 12.652C6.68267 12.9933 6.37333 13.452 6.224 14.028H0.944V0.108H15.888V4.908Z" fill="#10A19D"/>
</svg>
