<svg width="43" height="43" viewBox="0 0 43 43" fill="none" xmlns="http://www.w3.org/2000/svg">
<g clip-path="url(#clip0_3056_12393)">
<path d="M19.8539 40.8243C31.4083 41.9841 41.5052 35.6494 42.406 26.6752C43.3068 17.7011 34.6704 9.48588 23.1159 8.32608C11.5615 7.16628 1.46458 13.5011 0.56378 22.4752C-0.337021 31.4493 8.29944 39.6645 19.8539 40.8243Z" fill="#ECBF84"/>
<path d="M23.1165 13.1309C33.0587 14.1277 40.8418 20.3496 42.2462 27.7876C42.3145 27.4194 42.3709 27.0499 42.4083 26.6746C43.3087 17.7003 34.6731 9.48737 23.1185 8.32647C11.5632 7.16687 1.46749 13.5023 0.569742 22.4752C0.443742 23.7273 0.504117 24.9644 0.732492 26.1686C2.31865 17.7909 12.0495 12.0192 23.1237 13.1309" fill="#E1B580"/>
<path d="M32.9647 22.5624C32.4994 27.2106 27.2704 30.4899 21.2887 29.8908C15.3057 29.2896 10.834 25.0365 11.2999 20.3902C11.7665 15.7433 16.9955 12.4627 22.9766 13.0632C28.9596 13.665 33.432 17.9181 32.9647 22.5624Z" fill="#ECBF84"/>
<path d="M19.8554 36.7643C9.72622 35.7964 1.83678 29.6808 0.65356 22.443C0.618779 22.6596 0.587279 22.8768 0.56431 23.0973C-0.336721 31.6206 8.30018 39.4221 19.8548 40.522C31.4081 41.6239 41.5058 35.608 42.4035 27.084C42.5133 26.05 42.4835 25.006 42.3149 23.9799C40.9795 32.1516 31.1062 37.8334 19.8515 36.7643" fill="#C59A66"/>
<path d="M33.0598 12.1675C33.111 11.0236 32.7441 9.91323 32.0485 8.90983C32.0472 8.9072 32.0459 8.90917 32.0446 8.89933L32.0419 8.89801C30.4354 6.59064 27.0853 4.84042 23.0434 4.4972C18.8185 4.1402 14.9683 5.41529 12.909 7.57829C12.8958 7.58748 9.64478 9.44598 11.0144 21.5695L11.0131 21.58C10.9192 22.4019 11.0289 23.2342 11.3327 24.0036C11.3327 24.0062 11.334 24.0088 11.334 24.0154H11.3366C12.5028 27.023 16.4225 29.4478 21.3287 29.8619C26.6489 30.3141 31.3863 28.2535 32.9088 25.0884L33.065 25.0962C33.065 25.0962 33.1011 24.879 33.1543 24.4899C33.3912 23.8025 33.4721 23.071 33.3912 22.3485C33.6222 19.7458 33.7771 15.7138 33.0598 12.1675Z" fill="#C59A66"/>
<path d="M33.5292 21.3182C33.5095 21.3235 33.4892 21.3262 33.4688 21.3261C33.4379 21.7469 33.353 22.162 33.2162 22.5612C33.165 22.951 33.1289 23.1676 33.1289 23.1676L32.9714 23.1584C31.4482 26.3261 26.7107 28.3861 21.3912 27.9326C16.4837 27.5172 12.5666 25.0936 11.3998 22.0861L11.3972 22.0847L11.3958 22.0729C11.2172 21.6134 11.1047 21.1308 11.0618 20.6397C11.0357 20.6407 11.0096 20.6376 10.9844 20.6305C11.0126 20.916 11.0434 21.2067 11.0769 21.504C11.0769 21.5066 11.0743 21.5092 11.0743 21.5132C10.9815 22.3351 11.0919 23.1673 11.3958 23.9367L11.3972 23.9472H11.3998C12.5666 26.9574 16.4837 29.3809 21.3912 29.7963C26.7107 30.2472 31.4482 28.1885 32.9714 25.0234L33.1289 25.0313C33.1289 25.0313 33.165 24.8121 33.2162 24.4256C33.4518 23.7389 33.533 23.0086 33.4537 22.2869C33.4806 21.9824 33.5062 21.6575 33.5292 21.3182Z" fill="#39B24A"/>
<path d="M32.9517 12.4963C32.4897 16.3694 27.3256 19.1047 21.4174 18.6033C15.5112 18.1026 11.0953 14.5575 11.554 10.6824C12.0134 6.80789 17.1761 4.07395 23.0836 4.57401C28.9964 5.07342 33.4084 8.61914 32.9471 12.495" fill="#ECBF84"/>
<path d="M23.0889 4.59957C20.0583 4.34167 17.2246 4.94017 15.1213 6.10239C16.302 5.68611 17.5569 5.52223 18.8049 5.62136C23.4052 5.97967 26.7389 9.75967 26.2553 14.0647C26.0538 15.8326 25.2387 17.4142 24.0306 18.6394C28.7792 18.2758 32.5618 15.8096 32.9543 12.5205C33.413 8.64667 28.9971 5.09964 23.0908 4.59957" fill="#EED5B9"/>
<path d="M27.5507 30.694C26.8748 32.7474 26.9883 34.9118 26.6582 37.0242C26.5834 37.5007 27.3092 37.7041 27.384 37.2257C27.7128 35.1158 27.6019 32.943 28.2739 30.8955C28.4262 30.4315 27.6997 30.2327 27.5507 30.694Z" fill="#39B24A"/>
<path d="M26.3793 30.6185C26.5906 32.6962 26.4456 34.7687 26.3767 36.8464C26.3636 37.2762 26.443 37.8386 26.9391 37.9469C27.3893 38.0447 27.8211 37.6463 28.0186 37.2814C28.585 36.2288 28.5666 34.7523 28.5574 33.5927C28.5521 32.6575 28.5928 31.0517 27.8237 30.3528C27.7829 30.3128 27.7336 30.2826 27.6794 30.2644C27.6253 30.2462 27.5677 30.2406 27.5111 30.2478C27.4544 30.2551 27.4002 30.2751 27.3524 30.3063C27.3045 30.3376 27.2644 30.3793 27.235 30.4282C27.0139 30.7616 27.029 31.2925 26.9949 31.6725C26.926 32.5085 26.922 33.3499 26.9319 34.1866C26.945 35.0404 26.9962 35.8941 27.1143 36.74C27.1806 37.2316 27.2646 37.8504 27.6275 38.2251C27.9445 38.55 28.4196 38.3643 28.6145 38.0125C28.9111 37.4777 28.8055 36.6934 28.7628 36.1146C28.6939 35.2202 28.5528 34.3296 28.4176 33.443C28.3284 32.8498 28.1584 32.2008 28.2024 31.5983C27.9563 31.6318 27.7082 31.6639 27.4634 31.6987C27.7758 32.5217 28.0048 33.3781 28.1833 34.2391C28.3782 35.1828 28.642 36.5143 28.0967 37.3904C27.8434 37.7979 27.2442 37.8045 27.0933 37.3372C26.9325 36.8352 27.029 36.2242 27.0716 35.7124C27.2121 34.0402 27.0067 32.3688 27.3873 30.7157C27.4969 30.2451 26.7698 30.0456 26.6615 30.5181C26.2284 32.4022 26.38 34.3926 26.2769 36.3154C26.2166 37.4429 26.6044 38.8309 28.0337 38.3446C29.2268 37.9384 29.1972 36.2925 29.1021 35.2851C28.98 34.0022 28.6453 32.7028 28.1886 31.4986C28.0383 31.1002 27.4818 31.1639 27.451 31.5977C27.3722 32.668 27.7371 33.8545 27.8788 34.9117C27.9668 35.5745 28.0383 36.24 28.0449 36.9094C28.0475 37.139 28.0357 37.37 27.9766 37.5932C27.9412 37.7284 28.1702 37.7907 28.0685 37.5413C27.617 36.4493 27.6931 35.0384 27.6813 33.8827C27.6813 33.2199 27.6905 32.5637 27.7312 31.9074C27.7496 31.6042 27.7509 31.011 27.8834 30.8069L27.2928 30.8843C27.8263 31.3699 27.7751 32.6208 27.7988 33.2665C27.8408 34.3034 27.7909 35.375 27.5461 36.3837C27.5133 36.5097 27.1465 37.185 27.155 37.2132C27.0323 36.8313 27.1668 36.3036 27.2036 35.9145C27.3689 34.1958 27.3066 32.3359 27.1333 30.6185C27.0835 30.1408 26.3301 30.1369 26.3793 30.6185Z" fill="#39B24A"/>
<path d="M27.5506 33.5487C27.361 34.3146 27.193 35.0883 27.1805 35.8791C27.1713 36.364 27.9247 36.3627 27.9326 35.8791C27.9444 35.1546 28.1032 34.4511 28.2745 33.7482C28.3913 33.279 27.6648 33.0795 27.5506 33.5487ZM31.6916 29.0245C32.187 29.709 32.3721 30.5976 32.5821 31.4015C32.838 32.3839 33.0605 33.3834 33.4621 34.3211C33.7463 34.984 34.1676 35.7557 34.9026 35.9926C35.4906 36.1823 36.3509 36.1875 36.8569 35.7787C37.8964 34.942 36.7716 33.2134 36.261 32.4115C35.5057 31.2322 34.5732 30.1992 33.7082 29.104C33.4825 28.8165 33.0927 29.0843 33.0671 29.3678C32.8951 31.2453 33.8237 33.7646 35.4814 34.7753C35.7629 34.9485 36.1265 34.6644 36.034 34.3513C35.7063 33.2268 35.1805 32.1699 34.4813 31.2302C34.2877 30.9736 33.8992 30.9867 33.7948 31.3195C33.1084 33.4733 34.837 35.1664 35.9716 36.7801C36.1449 37.0275 36.5819 37.0341 36.6594 36.6909C37.0328 35.0141 36.6187 32.9325 35.1474 31.8956C34.8672 31.7007 34.5115 32.0216 34.5968 32.3209C34.7904 33.0218 35.1966 33.6281 35.5792 34.2398C35.8246 34.623 36.0517 35.0141 36.2033 35.4446C36.2781 35.6665 36.2755 35.8909 36.2683 36.1225C36.2532 36.6003 36.2709 36.3056 36.1436 36.1705C35.4532 35.4315 35.4479 34.2115 35.318 33.2711C35.1388 31.9908 34.9197 28.4753 32.9069 28.7246C32.6746 28.7529 32.4673 28.9438 32.546 29.1991C33.4024 32.019 35.425 34.3782 35.9329 37.3143C36.0858 37.1614 36.24 37.0059 36.3943 36.853C35.8502 36.6213 35.3495 36.2636 35.1434 35.6881C34.9138 35.7839 34.6847 35.8817 34.4557 35.9782C34.8311 36.5885 35.1185 37.6267 35.9585 37.7231C37.0262 37.8478 37.3596 36.7309 37.3333 35.881C37.2553 33.2429 34.8225 31.8189 33.766 29.6237C33.5573 29.186 32.9076 29.5679 33.1163 30.0024C33.8434 31.5104 35.1717 32.5985 36.0287 34.0225C36.4645 34.747 36.7053 35.6927 36.5367 36.5347C36.263 37.897 35.2885 35.8961 35.1034 35.5969C34.8882 35.2451 34.268 35.4735 34.417 35.887C34.7228 36.7342 35.3843 37.2375 36.1954 37.5768C36.4894 37.6995 36.7014 37.3583 36.6587 37.1122C36.1482 34.1709 34.1282 31.8228 33.2705 29.0016C33.1491 29.1584 33.027 29.3159 32.9063 29.476C33.9517 29.3487 34.1873 31.114 34.3303 31.8313C34.5705 33.0362 34.623 34.2805 34.9302 35.4709C35.1146 36.1869 36.093 37.7901 36.8563 36.7991C37.2513 36.2886 36.9954 35.3009 36.7506 34.789C36.3168 33.8847 35.5903 33.0966 35.3213 32.1207C35.1382 32.2625 34.9525 32.4049 34.7661 32.546C35.9441 33.3729 36.2269 35.171 35.9323 36.49C36.1619 36.4605 36.391 36.4303 36.618 36.3995C35.6278 34.9892 33.9149 33.4109 34.5174 31.5189C34.289 31.5472 34.06 31.5787 33.8309 31.6082C34.4956 32.4924 34.9964 33.4886 35.3095 34.5495L35.8601 34.1243C34.4255 33.2475 33.6702 30.9775 33.8185 29.3665L33.176 29.6335C33.8572 30.4959 34.5823 31.3175 35.2202 32.2159C35.5772 32.7179 37.0282 34.5574 36.3811 35.1979C36.0333 35.5457 35.1343 35.3521 34.8127 35.0758C34.2345 34.5784 33.9976 33.6846 33.785 32.985C33.3611 31.5833 33.2193 29.8586 32.3406 28.6426C32.0604 28.2548 31.4068 28.6295 31.6916 29.0245Z" fill="#39B24A"/>
<path d="M20.5794 26.2381C20.5271 26.3404 20.4811 26.4458 20.4416 26.5538C20.2533 27.0696 20.2224 27.6864 20.4672 28.3361C20.4672 28.3388 20.4698 28.344 20.4698 28.3493C20.4882 28.3899 20.5046 28.4267 20.5191 28.4654C20.6962 28.8578 21.6222 29.8357 22.6729 29.7595C21.8467 30.4158 21.8257 31.7572 21.9622 32.1673C21.9786 32.2087 21.9897 32.2474 22.0074 32.2848C22.0101 32.2953 22.0127 32.2966 22.0127 32.2999C22.2726 32.9423 22.7129 33.3761 23.1985 33.6308C23.3055 33.6852 23.4112 33.7285 23.5155 33.7679C24.2662 34.0409 25.1476 33.9641 25.7527 33.3807C25.8432 33.3033 25.9305 33.2206 26.0211 33.1333C27.3598 31.7906 28.8364 28.9911 29.5149 27.6241C29.6928 27.317 29.8247 27.0827 29.9054 26.9462L29.9192 26.9409V26.9357L29.9133 26.9383H29.91V26.937H29.9185L29.9133 26.9357H29.9008C29.7466 26.8852 29.4933 26.8077 29.154 26.7008C27.7312 26.1567 24.7473 25.0877 22.8533 25.0089C22.726 25.005 22.6059 25.0011 22.4885 25.0063C21.6472 24.9853 20.9469 25.5274 20.5794 26.2381Z" fill="#319C48"/>
<path d="M38.0574 28.4693C38.1106 28.3669 38.1569 28.261 38.1959 28.1524C38.3823 27.6392 38.4151 27.0223 38.1697 26.3713C38.1693 26.3668 38.1684 26.3624 38.167 26.3582C38.1519 26.3181 38.1323 26.2794 38.1185 26.242C37.9413 25.8456 37.014 24.8724 35.9647 24.9485C36.7889 24.2929 36.8119 22.9496 36.6741 22.5394C36.6603 22.4981 36.6485 22.4594 36.6314 22.422L36.6275 22.4062C36.3676 21.7651 35.9266 21.3319 35.4377 21.0767C35.3358 21.0238 35.2303 20.9782 35.122 20.9402C34.3726 20.6678 33.4919 20.7413 32.8869 21.326C32.7946 21.4066 32.7053 21.4904 32.6191 21.5774C31.2817 22.9161 29.8018 25.7177 29.1252 27.082C28.9474 27.3891 28.8129 27.6247 28.7328 27.7619L28.7197 27.7671C28.7223 27.7684 28.7197 27.7711 28.717 27.7678L28.7249 27.7625C28.7249 27.7652 28.7275 27.7625 28.7275 27.7625C28.7275 27.7625 28.7249 27.7652 28.7275 27.7678L28.7184 27.7717L28.7308 27.7678C28.8831 27.8137 29.1423 27.8951 29.4789 28.0001C30.9017 28.5481 33.885 29.6138 35.7796 29.6919C35.9063 29.6972 36.029 29.6926 36.1451 29.6932C36.9838 29.7149 37.684 29.1728 38.0515 28.4634" fill="#319C48"/>
<path d="M32.8597 28.0323C33.3925 29.3875 32.5309 30.9979 30.9316 31.6273C29.3363 32.2579 27.6044 31.6706 27.0715 30.3148L25.912 27.3695C25.3784 26.015 26.2394 24.4039 27.8361 23.7746C29.436 23.1452 31.1652 23.7345 31.6994 25.0871L32.8597 28.0323Z" fill="#39B24A"/>
</g>
<defs>
<clipPath id="clip0_3056_12393">
<rect width="42" height="42" fill="white" transform="translate(0.5 0.5)"/>
</clipPath>
</defs>
</svg>
