<svg width="47" height="47" viewBox="0 0 47 47" fill="none" xmlns="http://www.w3.org/2000/svg">
<path d="M22.9933 5.38393C22.9933 5.38393 23.6509 3.86737 25.1424 2.90424C25.8683 2.43706 27.1369 1.71471 27.3669 2.12081C27.4675 2.2969 27.1405 2.75331 26.8099 3.46127C26.6769 3.75237 26.3786 4.70112 26.3786 4.70112C26.3786 4.70112 27.6939 2.97971 29.9975 2.5269C31.8088 2.16752 33.7674 2.40112 33.9938 2.80362C34.2381 3.23846 32.9552 4.1944 32.5527 5.02815C32.1502 5.8619 31.8447 6.92565 31.8447 6.92565C31.8447 6.92565 34.2705 5.77924 34.8814 5.53487C35.6397 5.23299 37.2856 4.60049 37.512 4.87721C37.7384 5.15393 36.7861 6.76034 36.5777 7.05143C36.3261 7.40721 35.9452 8.06487 35.9452 8.06487C35.9452 8.06487 37.1095 7.53299 37.5624 7.25627C38.0188 6.97956 39.0286 6.19252 39.2586 6.34706C39.485 6.49799 39.485 8.03612 39.3341 8.70096C39.1328 9.58502 38.1949 10.5481 38.1949 10.5481C38.1949 10.5481 39.5353 10.85 40.2685 11.788C41.0016 12.726 41.4292 13.4555 41.7347 14.3935C42.1911 15.7842 42.3924 17.6817 42.2917 18.0375C42.1911 18.3933 41.6341 17.9117 40.5955 17.8363C39.9809 17.7896 39.8372 17.786 39.8372 17.786C39.8372 17.786 40.423 18.4832 40.6961 19.1264C41.0519 19.9602 41.44 21.2755 41.6556 21.8325C41.882 22.4147 42.0617 22.8711 42.3888 23.5288C42.4858 23.7228 41.706 23.9097 40.9225 23.173C40.6602 22.9286 40.3403 22.6914 40.3403 22.6914C40.3403 22.6914 40.8039 25.4478 40.7716 27.295C40.7464 28.6606 40.4409 31.1403 40.0384 31.3667C39.6324 31.5931 38.8238 29.8502 38.8238 29.8502C38.8238 29.8502 38.4716 31.8339 38.0655 33.1636C37.5839 34.7305 37.1275 35.4636 36.8508 36.4016C36.5202 37.5156 36.1931 38.3242 35.9667 37.9685C35.7691 37.663 35.5606 37.185 35.3594 36.8292C35.2049 36.5597 34.8527 35.841 34.8527 35.841C34.8527 35.841 34.4969 37.99 32.7791 39.4347C31.0613 40.8794 29.9472 42.0402 29.135 42.1408C28.657 42.2019 29.2105 40.0421 29.2105 40.0421C29.2105 40.0421 26.5295 42.148 25.2394 43.1039C24.6572 43.5352 24.1253 44.9511 23.7228 44.8505C23.3167 44.7499 22.2817 43.1794 21.6241 42.7014C20.9664 42.2235 19.7266 41.6628 19.5505 41.5622C19.3744 41.4616 18.537 40.9297 18.537 40.9297C18.537 40.9297 18.7455 42.1049 18.5119 42.2199C18.0052 42.4714 16.0574 41.0806 15.5003 40.2217C14.9433 39.3628 13.9586 37.5911 13.9586 37.5911C13.9586 37.5911 13.8328 39.2874 13.4267 39.0071C12.9955 38.7124 10.8967 37.1599 10.1636 35.9955C9.64611 35.1725 8.74767 32.8581 8.74767 32.8581C8.74767 32.8581 7.96423 33.6667 7.73423 33.7674C7.50423 33.868 6.92564 34.098 7.02626 33.2103C7.12689 32.3263 6.43329 30.321 6.31829 29.1135C6.16736 27.5466 6.46923 25.9258 6.46923 25.9258C6.46923 25.9258 5.17907 27.6472 4.57173 27.6221C3.96439 27.5969 4.32017 24.2835 4.47111 23.27C4.62204 22.2566 5.12876 20.4885 5.33001 19.856C5.53126 19.2235 6.28954 18.2891 6.28954 18.2891C6.28954 18.2891 4.4172 18.9216 4.14048 18.67C3.86376 18.4185 4.29142 16.1652 4.54657 14.7996C4.67595 14.0988 5.22939 13.0027 5.93736 12.1941C6.64532 11.3855 7.73423 11.5364 7.83486 11.1806C7.93548 10.8249 7.43236 10.5446 7.07657 9.96596C6.5447 9.10706 6.24282 7.33534 6.51954 7.02987C6.69204 6.84299 7.65876 7.5869 8.82314 7.71268C9.98751 7.83846 11.0225 7.76299 11.0225 7.76299C11.0225 7.76299 10.3505 6.97237 10.063 6.3219C9.65689 5.41268 9.63173 4.32377 9.88689 4.04346C10.142 3.76315 11.0261 4.62565 12.2156 4.92752C13.4052 5.2294 15.1769 5.25815 15.1769 5.25815C15.1769 5.25815 14.4186 4.44956 14.2174 3.51159C14.0161 2.57721 14.0664 1.99502 14.3934 1.8944C14.7241 1.79377 15.6872 2.69581 16.3664 2.90784C17.0995 3.13424 19.5792 2.98331 20.6933 3.31393C21.8074 3.64456 22.9933 5.38393 22.9933 5.38393Z" fill="#865C50"/>
<path d="M30.9858 13.2793C30.9858 13.2793 35.3378 9.13213 37.8678 12.2156C40.8686 15.8776 32.9084 19.9062 32.9084 19.9062L30.9858 13.2793ZM15.8094 14.3395C15.8094 14.3395 11.752 9.02073 8.76921 11.9029C5.78639 14.7851 11.964 19.1946 11.964 19.1946L15.8094 14.3395Z" fill="#FEC000"/>
<path d="M34.7305 16.8192C34.7305 16.8192 37.9181 14.5947 36.6028 13.1752C35.1976 11.6622 32.6066 14.2892 32.6066 14.2892L34.7305 16.8192ZM13.955 14.4689C13.955 14.4689 11.3136 11.8527 9.94796 13.4698C8.7189 14.9253 12.2264 17.7212 12.2264 17.7212L13.955 14.4689Z" fill="#FF8E06"/>
<path d="M23.7516 32.6532C23.7516 32.6532 26.3319 31.9453 27.9491 31.1367C29.5663 30.3281 35.5894 26.9392 36.0422 22.7884C36.4986 18.6412 36.0422 17.5271 34.1196 14.9971C32.1969 12.4671 28.826 11.885 27.0866 12.2659C25.013 12.7223 24.6572 14.2353 23.748 14.2892C22.8891 14.3395 23.1407 13.38 20.661 12.4671C17.4877 11.2992 8.80159 14.4257 10.3397 22.7884C11.1483 27.1907 17.5632 30.9462 18.3825 31.3882C20.3627 32.452 23.7516 32.6532 23.7516 32.6532Z" fill="#FEC000"/>
<path d="M30.3125 18.8394C30.6229 18.0594 30.2542 17.1801 29.4889 16.8755C28.7236 16.5709 27.8516 16.9564 27.5411 17.7364C27.2306 18.5165 27.5993 19.3957 28.3646 19.7003C29.1299 20.0049 30.002 19.6195 30.3125 18.8394Z" fill="#2E2F2F"/>
<path d="M18.6192 19.5434C19.4043 19.2241 19.7771 18.317 19.4518 17.5172C19.1266 16.7174 18.2265 16.3279 17.4414 16.6471C16.6564 16.9664 16.2836 17.8736 16.6089 18.6733C16.9341 19.4731 17.8342 19.8626 18.6192 19.5434Z" fill="#2E2F2F"/>
<path d="M23.6833 20.9844C20.6142 20.8909 17.9153 24.3589 17.9153 30.1233C17.9153 35.7224 20.8837 37.0377 23.2772 37.0377C26.3139 37.0377 29.1781 35.0467 28.8439 29.6166C28.5312 24.5925 26.9536 21.085 23.6833 20.9844Z" fill="#FFD899"/>
<path d="M20.1075 24.1541C19.8056 24.4559 20.377 26.1091 20.8838 26.9536C21.3905 27.7981 22.8388 29.1781 23.6509 29.1458C24.4595 29.1134 25.9797 27.4244 26.4505 26.1773C26.9213 24.9303 27.0578 24.1541 26.8566 23.8486C26.6553 23.5431 24.2583 23.9169 23.3491 23.9169C22.4398 23.9169 20.413 23.8522 20.1075 24.1541Z" fill="#2E2F2F"/>
<path d="M23.5827 27.985C23.5827 27.985 22.2781 29.4045 21.7103 29.6201C20.9161 29.922 19.687 29.6633 19.6511 30.152C19.6188 30.6587 20.4094 31.1906 21.6744 31.0217C23.0724 30.8348 23.597 29.9759 23.597 29.9759C23.597 29.9759 24.3913 31.1044 25.9258 31.1726C27.4603 31.2409 27.8161 30.2634 27.392 30.1269C26.817 29.9436 26.4577 29.9795 25.588 29.7064C24.898 29.4836 23.5827 27.985 23.5827 27.985Z" fill="#2E2F2F"/>
</svg>
