<svg width="47" height="47" viewBox="0 0 47 47" fill="none" xmlns="http://www.w3.org/2000/svg">
<path d="M39.0969 30.1125C42.3916 30.1125 45.0625 27.4737 45.0625 24.2187C45.0625 20.9637 42.3916 18.325 39.0969 18.325C35.8021 18.325 33.1312 20.9637 33.1312 24.2187C33.1312 27.4737 35.8021 30.1125 39.0969 30.1125Z" fill="#89664C"/>
<path d="M39.0969 28.1C41.2404 28.1 42.9781 26.3623 42.9781 24.2188C42.9781 22.0752 41.2404 20.3375 39.0969 20.3375C36.9533 20.3375 35.2156 22.0752 35.2156 24.2188C35.2156 26.3623 36.9533 28.1 39.0969 28.1Z" fill="#FFC5D3"/>
<path d="M7.83125 30.1125C11.0863 30.1125 13.725 27.4737 13.725 24.2187C13.725 20.9637 11.0863 18.325 7.83125 18.325C4.57622 18.325 1.9375 20.9637 1.9375 24.2187C1.9375 27.4737 4.57622 30.1125 7.83125 30.1125Z" fill="#89664C"/>
<path d="M7.83126 28.1C9.97482 28.1 11.7125 26.3623 11.7125 24.2188C11.7125 22.0752 9.97482 20.3375 7.83126 20.3375C5.68771 20.3375 3.95001 22.0752 3.95001 24.2188C3.95001 26.3623 5.68771 28.1 7.83126 28.1Z" fill="#FFC5D3"/>
<path d="M31.6938 8.26252C32.4844 7.83127 33.0594 7.61564 33.0594 7.61564C30.7594 6.82502 28.7469 6.3219 26.95 6.10627C27.8844 5.38752 28.4594 5.1719 28.4594 5.1719C13.7969 3.08752 6.82501 11.6406 6.82501 19.1875H40.175C39.6719 13.8688 36.725 10.275 31.6938 8.26252Z" fill="#89664C"/>
<path d="M40.2469 20.3375C40.2469 13.3656 32.7719 7.6875 23.5 7.6875C14.2281 7.6875 6.75311 13.3656 6.75311 20.3375C6.75311 21.9906 7.18436 23.5 7.90311 24.9375C7.18436 26.375 6.75311 27.9563 6.75311 29.5375C6.75311 36.5094 14.2281 42.1875 23.5 42.1875C32.7719 42.1875 40.2469 36.5094 40.2469 29.5375C40.2469 27.8844 39.8156 26.375 39.0969 24.9375C39.8156 23.5 40.2469 21.9188 40.2469 20.3375Z" fill="#89664C"/>
<path d="M37.875 20.7688C37.875 8.6219 23.5 16.3844 23.5 16.3844C23.5 16.3844 9.125 8.6219 9.125 20.7688C9.125 24.1469 11.2094 27.2375 14.5156 29.1782C13.5813 30.4 13.0062 31.7656 13.0062 33.275C13.0062 37.6594 17.75 41.1813 23.5719 41.1813C29.3937 41.1813 34.1375 37.6594 34.1375 33.275C34.1375 31.7656 33.5625 30.4 32.6281 29.1782C35.7906 27.2375 37.875 24.1469 37.875 20.7688Z" fill="#E0AC7E"/>
<path d="M25.7282 28.3157C25.7282 29.1063 25.4407 29.825 25.0094 29.825C24.5782 29.825 24.2907 29.1782 24.2907 28.3157C24.2907 27.525 24.5782 26.8063 25.0094 26.8063C25.4407 26.8781 25.7282 27.525 25.7282 28.3157ZM22.7094 28.3157C22.7094 29.1063 22.4219 29.825 21.9907 29.825C21.5594 29.825 21.2719 29.1782 21.2719 28.3157C21.2719 27.525 21.5594 26.8063 21.9907 26.8063C22.35 26.8781 22.7094 27.525 22.7094 28.3157Z" fill="#3B302A"/>
<path d="M29.7531 26.5188C31.1425 26.5188 32.2687 25.0707 32.2687 23.2844C32.2687 21.4981 31.1425 20.05 29.7531 20.05C28.3638 20.05 27.2375 21.4981 27.2375 23.2844C27.2375 25.0707 28.3638 26.5188 29.7531 26.5188Z" fill="#3B302A"/>
<path d="M17.2469 26.5188C18.6362 26.5188 19.7625 25.0707 19.7625 23.2844C19.7625 21.4981 18.6362 20.05 17.2469 20.05C15.8575 20.05 14.7313 21.4981 14.7313 23.2844C14.7313 25.0707 15.8575 26.5188 17.2469 26.5188Z" fill="#3B302A"/>
<path d="M30.5438 32.4844C31.55 33.3469 28.4594 37.4438 23.5 37.5157C18.5406 37.5157 15.3781 33.3469 16.4563 32.4844C16.7438 32.2688 20.1938 33.1313 23.5 33.1313C26.8781 33.1313 30.3281 32.2688 30.5438 32.4844Z" fill="#3B302A"/>
</svg>
