<svg width="17" height="25" viewBox="0 0 17 25" fill="none" xmlns="http://www.w3.org/2000/svg">
<path d="M5.828 17.652C6.148 19.3373 7.12933 20.18 8.772 20.18C9.90267 20.18 10.7027 19.6787 11.172 18.676C11.6413 17.6733 11.876 16.0413 11.876 13.78C11.4067 14.4413 10.7667 14.9533 9.956 15.316C9.14533 15.6787 8.23867 15.86 7.236 15.86C5.87067 15.86 4.65467 15.5827 3.588 15.028C2.52133 14.452 1.67867 13.6093 1.06 12.5C0.462667 11.3693 0.164 10.004 0.164 8.404C0.164 6.82533 0.484 5.44933 1.124 4.276C1.78533 3.10267 2.71333 2.196 3.908 1.556C5.124 0.915999 6.55333 0.595999 8.196 0.595999C11.3533 0.595999 13.5613 1.57733 14.82 3.54C16.0787 5.50267 16.708 8.39333 16.708 12.212C16.708 14.9853 16.452 17.2787 15.94 19.092C15.4493 20.884 14.6067 22.2493 13.412 23.188C12.2387 24.1267 10.628 24.596 8.58 24.596C6.95867 24.596 5.572 24.276 4.42 23.636C3.28933 22.996 2.41467 22.1533 1.796 21.108C1.19867 20.0627 0.857333 18.9107 0.772 17.652H5.828ZM8.484 11.54C9.38 11.54 10.0947 11.2733 10.628 10.74C11.1613 10.1853 11.428 9.43867 11.428 8.5C11.428 7.476 11.1507 6.68667 10.596 6.132C10.0413 5.57733 9.29467 5.3 8.356 5.3C7.41733 5.3 6.67067 5.588 6.116 6.164C5.58267 6.71867 5.316 7.48667 5.316 8.468C5.316 9.38533 5.58267 10.132 6.116 10.708C6.67067 11.2627 7.46 11.54 8.484 11.54Z" fill="#D0A353"/>
</svg>
