<svg width="43" height="43" viewBox="0 0 43 43" fill="none" xmlns="http://www.w3.org/2000/svg">
<g clip-path="url(#clip0_3056_12420)">
<path d="M12.4463 4.66452C12.4915 4.26378 12.6826 3.89372 12.9833 3.62499C13.284 3.35626 13.6731 3.20769 14.0764 3.20764H28.972C29.8251 3.20764 30.5365 3.86127 30.6074 4.71177L30.7386 6.30383H12.2612L12.445 4.6632L12.4463 4.66452Z" fill="url(#paint0_linear_3056_12420)"/>
<path d="M12.4463 4.66452C12.4915 4.26378 12.6826 3.89372 12.9833 3.62499C13.284 3.35626 13.6731 3.20769 14.0764 3.20764H28.972C29.8251 3.20764 30.5365 3.86127 30.6074 4.71177L30.7386 6.30383H12.2612L12.445 4.6632L12.4463 4.66452Z" fill="url(#paint1_linear_3056_12420)"/>
<path d="M12.4463 4.66452C12.4915 4.26378 12.6826 3.89372 12.9833 3.62499C13.284 3.35626 13.6731 3.20769 14.0764 3.20764H28.972C29.8251 3.20764 30.5365 3.86127 30.6074 4.71177L30.7386 6.30383H12.2612L12.445 4.6632L12.4463 4.66452Z" fill="url(#paint2_radial_3056_12420)"/>
<path d="M12.2405 6.52963L9.29785 36.1213L17.1624 37.1673C18.1165 30.3161 20.126 16.3918 20.2822 15.4901C20.479 14.3613 21.1878 14.3613 21.6826 14.3613C22.0777 14.3613 22.1905 14.0332 22.1971 13.8704V6.52832L12.2405 6.52963Z" fill="url(#paint3_linear_3056_12420)"/>
<path d="M12.2405 6.52963L9.29785 36.1213L17.1624 37.1673C18.1165 30.3161 20.126 16.3918 20.2822 15.4901C20.479 14.3613 21.1878 14.3613 21.6826 14.3613C22.0777 14.3613 22.1905 14.0332 22.1971 13.8704V6.52832L12.2405 6.52963Z" fill="url(#paint4_radial_3056_12420)"/>
<path d="M12.2405 6.52963L9.29785 36.1213L17.1624 37.1673C18.1165 30.3161 20.126 16.3918 20.2822 15.4901C20.479 14.3613 21.1878 14.3613 21.6826 14.3613C22.0777 14.3613 22.1905 14.0332 22.1971 13.8704V6.52832L12.2405 6.52963Z" fill="url(#paint5_radial_3056_12420)"/>
<path d="M22.592 15.6147C22.5592 15.4008 22.3597 15.2105 22.2639 15.1423L22.592 6.57031H30.5484L33.4609 35.9178L25.6475 37.1266C24.6422 30.0444 22.6249 15.8274 22.592 15.6147Z" fill="url(#paint6_linear_3056_12420)"/>
<path d="M22.592 15.6147C22.5592 15.4008 22.3597 15.2105 22.2639 15.1423L22.592 6.57031H30.5484L33.4609 35.9178L25.6475 37.1266C24.6422 30.0444 22.6249 15.8274 22.592 15.6147Z" fill="url(#paint7_linear_3056_12420)"/>
<path d="M22.592 15.6147C22.5592 15.4008 22.3597 15.2105 22.2639 15.1423L22.592 6.57031H30.5484L33.4609 35.9178L25.6475 37.1266C24.6422 30.0444 22.6249 15.8274 22.592 15.6147Z" fill="url(#paint8_linear_3056_12420)"/>
<path d="M31.0904 12.0316C29.927 11.7233 28.9196 10.9938 28.2638 9.98464C27.608 8.97547 27.3506 7.75863 27.5414 6.57031H30.5483L31.0904 12.0303V12.0316Z" fill="url(#paint9_linear_3056_12420)"/>
<path d="M31.0904 12.0316C29.927 11.7233 28.9196 10.9938 28.2638 9.98464C27.608 8.97547 27.3506 7.75863 27.5414 6.57031H30.5483L31.0904 12.0303V12.0316Z" fill="url(#paint10_linear_3056_12420)"/>
<g filter="url(#filter0_d_3056_12420)">
<path d="M20.2751 15.5321L20.2817 15.4914C20.4786 14.3626 21.1873 14.3626 21.6821 14.3626C22.0772 14.3626 22.1901 14.0345 22.1966 13.8718V6.87744H23.458V14.2196C23.458 14.5677 23.3197 14.9015 23.0735 15.1476C22.8274 15.3938 22.4936 15.5321 22.1455 15.5321H20.2751Z" fill="url(#paint11_linear_3056_12420)"/>
<path d="M20.2751 15.5321L20.2817 15.4914C20.4786 14.3626 21.1873 14.3626 21.6821 14.3626C22.0772 14.3626 22.1901 14.0345 22.1966 13.8718V6.87744H23.458V14.2196C23.458 14.5677 23.3197 14.9015 23.0735 15.1476C22.8274 15.3938 22.4936 15.5321 22.1455 15.5321H20.2751Z" fill="url(#paint12_linear_3056_12420)"/>
</g>
<g filter="url(#filter1_d_3056_12420)">
<path d="M21.5302 5.21573C21.9347 5.21573 22.2626 4.88783 22.2626 4.48335C22.2626 4.07887 21.9347 3.75098 21.5302 3.75098C21.1257 3.75098 20.7979 4.07887 20.7979 4.48335C20.7979 4.88783 21.1257 5.21573 21.5302 5.21573Z" fill="url(#paint13_radial_3056_12420)"/>
</g>
<g filter="url(#filter2_d_3056_12420)">
<path d="M25.4504 38.0138C25.4247 37.8431 25.4329 37.6691 25.4746 37.5016C25.5163 37.3341 25.5905 37.1765 25.6932 37.0378C25.7958 36.899 25.9248 36.7819 26.0728 36.6931C26.2208 36.6043 26.3848 36.5455 26.5555 36.5202L32.996 35.5712C33.1674 35.546 33.3421 35.555 33.51 35.5976C33.678 35.6403 33.8358 35.7158 33.9744 35.8198C34.113 35.9237 34.2297 36.0541 34.3177 36.2034C34.4056 36.3526 34.4632 36.5178 34.487 36.6895L34.6051 37.5308C34.6292 37.7039 34.6184 37.8802 34.5734 38.0491C34.5285 38.2181 34.4502 38.3763 34.3432 38.5146C34.2362 38.6529 34.1027 38.7684 33.9504 38.8544C33.7982 38.9403 33.6303 38.995 33.4567 39.0152L26.9965 39.7686C26.6581 39.8081 26.3176 39.7145 26.0469 39.5076C25.7763 39.3006 25.5967 38.9965 25.5462 38.6595L25.4504 38.0138Z" fill="url(#paint14_linear_3056_12420)"/>
<path d="M25.4504 38.0138C25.4247 37.8431 25.4329 37.6691 25.4746 37.5016C25.5163 37.3341 25.5905 37.1765 25.6932 37.0378C25.7958 36.899 25.9248 36.7819 26.0728 36.6931C26.2208 36.6043 26.3848 36.5455 26.5555 36.5202L32.996 35.5712C33.1674 35.546 33.3421 35.555 33.51 35.5976C33.678 35.6403 33.8358 35.7158 33.9744 35.8198C34.113 35.9237 34.2297 36.0541 34.3177 36.2034C34.4056 36.3526 34.4632 36.5178 34.487 36.6895L34.6051 37.5308C34.6292 37.7039 34.6184 37.8802 34.5734 38.0491C34.5285 38.2181 34.4502 38.3763 34.3432 38.5146C34.2362 38.6529 34.1027 38.7684 33.9504 38.8544C33.7982 38.9403 33.6303 38.995 33.4567 39.0152L26.9965 39.7686C26.6581 39.8081 26.3176 39.7145 26.0469 39.5076C25.7763 39.3006 25.5967 38.9965 25.5462 38.6595L25.4504 38.0138Z" fill="url(#paint15_linear_3056_12420)"/>
</g>
<g filter="url(#filter3_d_3056_12420)">
<path d="M17.6123 38.0138C17.638 37.843 17.6298 37.6689 17.588 37.5013C17.5463 37.3338 17.4719 37.1761 17.3691 37.0374C17.2663 36.8986 17.1372 36.7815 16.989 36.6927C16.8409 36.604 16.6767 36.5453 16.5059 36.5202L10.0655 35.5712C9.89405 35.546 9.71933 35.555 9.5514 35.5976C9.38347 35.6403 9.22565 35.7158 9.08703 35.8198C8.94842 35.9237 8.83176 36.0541 8.74379 36.2034C8.65582 36.3526 8.59827 36.5178 8.57447 36.6895L8.45635 37.5308C8.43228 37.7039 8.44304 37.8802 8.48802 38.0491C8.53299 38.2181 8.61127 38.3763 8.71825 38.5146C8.82523 38.6529 8.95876 38.7684 9.111 38.8544C9.26324 38.9403 9.43112 38.995 9.60479 39.0152L16.0649 39.7686C16.4033 39.8081 16.7439 39.7145 17.0145 39.5076C17.2852 39.3006 17.4647 38.9965 17.5152 38.6595L17.6123 38.0138Z" fill="url(#paint16_linear_3056_12420)"/>
</g>
<g filter="url(#filter4_d_3056_12420)">
<path fill-rule="evenodd" clip-rule="evenodd" d="M31.6287 12.6406C31.6307 12.6614 31.6278 12.6825 31.62 12.7019C31.6123 12.7214 31.6 12.7387 31.5842 12.7525C31.5684 12.7662 31.5495 12.776 31.5292 12.7809C31.5088 12.7859 31.4876 12.7859 31.4672 12.781C27.4654 11.7861 26.7383 8.5797 26.796 7.0152C26.7967 6.99801 26.8008 6.98113 26.8082 6.96557C26.8155 6.95002 26.826 6.93612 26.8388 6.92471C26.8517 6.9133 26.8668 6.90462 26.8831 6.8992C26.8994 6.89377 26.9167 6.89171 26.9339 6.89314L27.9812 6.96533C28.0159 6.96801 28.0482 6.98397 28.0715 7.00989C28.0947 7.0358 28.107 7.06967 28.1059 7.10445C28.0731 8.27783 28.606 10.5537 31.2612 11.3504C31.3244 11.3688 31.381 11.4051 31.4241 11.4549C31.4672 11.5048 31.4949 11.566 31.504 11.6313L31.6287 12.6406Z" fill="#578DEA"/>
</g>
<g filter="url(#filter5_dd_3056_12420)">
<path fill-rule="evenodd" clip-rule="evenodd" d="M11.3939 12.6406C11.3919 12.6613 11.3949 12.6822 11.4025 12.7015C11.4102 12.7208 11.4224 12.7381 11.438 12.7518C11.4536 12.7655 11.4723 12.7753 11.4925 12.7804C11.5127 12.7855 11.5337 12.7857 11.554 12.781C15.5558 11.7861 16.283 8.5797 16.2265 7.0152C16.2259 6.99788 16.2217 6.98088 16.2143 6.96523C16.2068 6.94958 16.1963 6.93562 16.1833 6.92419C16.1702 6.91276 16.155 6.90411 16.1385 6.89877C16.122 6.89344 16.1046 6.89152 16.0874 6.89314L15.04 6.96532C15.0053 6.96801 14.973 6.98397 14.9498 7.00988C14.9265 7.0358 14.9142 7.06967 14.9153 7.10445C14.9481 8.27782 14.4153 10.5537 11.7601 11.3504C11.6968 11.3688 11.6402 11.4051 11.5971 11.4549C11.554 11.5048 11.5263 11.566 11.5173 11.6313L11.3926 12.6406H11.3939Z" fill="#2364D0"/>
</g>
<path d="M12.201 5.98748C12.2051 5.95593 12.2206 5.92696 12.2445 5.90595C12.2684 5.88495 12.2991 5.87334 12.3309 5.87329H30.7308C30.7627 5.87334 30.7934 5.88495 30.8173 5.90595C30.8412 5.92696 30.8566 5.95593 30.8608 5.98748L30.992 7.03748C30.9945 7.05609 30.9929 7.07501 30.9874 7.09296C30.9819 7.11091 30.9726 7.12747 30.9602 7.14153C30.9477 7.15558 30.9324 7.16681 30.9153 7.17445C30.8981 7.18208 30.8796 7.18595 30.8608 7.18579H12.201C12.1822 7.18595 12.1636 7.18208 12.1465 7.17445C12.1293 7.16681 12.114 7.15558 12.1016 7.14153C12.0891 7.12747 12.0798 7.11091 12.0744 7.09296C12.0689 7.07501 12.0673 7.05609 12.0697 7.03748L12.201 5.98748Z" fill="#3A82E1"/>
</g>
<defs>
<filter id="filter0_d_3056_12420" x="19.8939" y="5.92432" width="5.08911" height="10.5609" filterUnits="userSpaceOnUse" color-interpolation-filters="sRGB">
<feFlood flood-opacity="0" result="BackgroundImageFix"/>
<feColorMatrix in="SourceAlpha" type="matrix" values="0 0 0 0 0 0 0 0 0 0 0 0 0 0 0 0 0 0 127 0" result="hardAlpha"/>
<feOffset dx="0.571875"/>
<feGaussianBlur stdDeviation="0.476562"/>
<feComposite in2="hardAlpha" operator="out"/>
<feColorMatrix type="matrix" values="0 0 0 0 0.129412 0 0 0 0 0.345098 0 0 0 0 0.776471 0 0 0 1 0"/>
<feBlend mode="normal" in2="BackgroundImageFix" result="effect1_dropShadow_3056_12420"/>
<feBlend mode="normal" in="SourceGraphic" in2="effect1_dropShadow_3056_12420" result="shape"/>
</filter>
<filter id="filter1_d_3056_12420" x="20.0354" y="2.22598" width="3.75234" height="3.75222" filterUnits="userSpaceOnUse" color-interpolation-filters="sRGB">
<feFlood flood-opacity="0" result="BackgroundImageFix"/>
<feColorMatrix in="SourceAlpha" type="matrix" values="0 0 0 0 0 0 0 0 0 0 0 0 0 0 0 0 0 0 127 0" result="hardAlpha"/>
<feOffset dx="0.38125" dy="-0.38125"/>
<feGaussianBlur stdDeviation="0.571875"/>
<feComposite in2="hardAlpha" operator="out"/>
<feColorMatrix type="matrix" values="0 0 0 0 0.117647 0 0 0 0 0.345098 0 0 0 0 0.8 0 0 0 1 0"/>
<feBlend mode="normal" in2="BackgroundImageFix" result="effect1_dropShadow_3056_12420"/>
<feBlend mode="normal" in="SourceGraphic" in2="effect1_dropShadow_3056_12420" result="shape"/>
</filter>
<filter id="filter2_d_3056_12420" x="24.292" y="34.4135" width="12.2319" height="7.27021" filterUnits="userSpaceOnUse" color-interpolation-filters="sRGB">
<feFlood flood-opacity="0" result="BackgroundImageFix"/>
<feColorMatrix in="SourceAlpha" type="matrix" values="0 0 0 0 0 0 0 0 0 0 0 0 0 0 0 0 0 0 127 0" result="hardAlpha"/>
<feOffset dx="0.38125" dy="0.38125"/>
<feGaussianBlur stdDeviation="0.7625"/>
<feComposite in2="hardAlpha" operator="out"/>
<feColorMatrix type="matrix" values="0 0 0 0 0.101961 0 0 0 0 0.360784 0 0 0 0 0.764706 0 0 0 1 0"/>
<feBlend mode="normal" in2="BackgroundImageFix" result="effect1_dropShadow_3056_12420"/>
<feBlend mode="normal" in="SourceGraphic" in2="effect1_dropShadow_3056_12420" result="shape"/>
</filter>
<filter id="filter3_d_3056_12420" x="6.91885" y="34.0323" width="12.9956" height="8.03271" filterUnits="userSpaceOnUse" color-interpolation-filters="sRGB">
<feFlood flood-opacity="0" result="BackgroundImageFix"/>
<feColorMatrix in="SourceAlpha" type="matrix" values="0 0 0 0 0 0 0 0 0 0 0 0 0 0 0 0 0 0 127 0" result="hardAlpha"/>
<feOffset dx="0.38125" dy="0.38125"/>
<feGaussianBlur stdDeviation="0.953125"/>
<feComposite in2="hardAlpha" operator="out"/>
<feColorMatrix type="matrix" values="0 0 0 0 0.129412 0 0 0 0 0.278431 0 0 0 0 0.67451 0 0 0 1 0"/>
<feBlend mode="normal" in2="BackgroundImageFix" result="effect1_dropShadow_3056_12420"/>
<feBlend mode="normal" in="SourceGraphic" in2="effect1_dropShadow_3056_12420" result="shape"/>
</filter>
<filter id="filter4_d_3056_12420" x="26.4117" y="4.98645" width="7.12393" height="8.17947" filterUnits="userSpaceOnUse" color-interpolation-filters="sRGB">
<feFlood flood-opacity="0" result="BackgroundImageFix"/>
<feColorMatrix in="SourceAlpha" type="matrix" values="0 0 0 0 0 0 0 0 0 0 0 0 0 0 0 0 0 0 127 0" result="hardAlpha"/>
<feOffset dx="0.7625" dy="-0.7625"/>
<feGaussianBlur stdDeviation="0.571875"/>
<feComposite in2="hardAlpha" operator="out"/>
<feColorMatrix type="matrix" values="0 0 0 0 0.2 0 0 0 0 0.407843 0 0 0 0 0.898039 0 0 0 1 0"/>
<feBlend mode="normal" in2="BackgroundImageFix" result="effect1_dropShadow_3056_12420"/>
<feBlend mode="normal" in="SourceGraphic" in2="effect1_dropShadow_3056_12420" result="shape"/>
</filter>
<filter id="filter5_dd_3056_12420" x="10.4395" y="5.5582" width="7.12441" height="8.94185" filterUnits="userSpaceOnUse" color-interpolation-filters="sRGB">
<feFlood flood-opacity="0" result="BackgroundImageFix"/>
<feColorMatrix in="SourceAlpha" type="matrix" values="0 0 0 0 0 0 0 0 0 0 0 0 0 0 0 0 0 0 127 0" result="hardAlpha"/>
<feOffset dx="0.38125" dy="0.7625"/>
<feGaussianBlur stdDeviation="0.476562"/>
<feComposite in2="hardAlpha" operator="out"/>
<feColorMatrix type="matrix" values="0 0 0 0 0.141176 0 0 0 0 0.286275 0 0 0 0 0.631373 0 0 0 1 0"/>
<feBlend mode="normal" in2="BackgroundImageFix" result="effect1_dropShadow_3056_12420"/>
<feColorMatrix in="SourceAlpha" type="matrix" values="0 0 0 0 0 0 0 0 0 0 0 0 0 0 0 0 0 0 127 0" result="hardAlpha"/>
<feOffset dx="-0.38125" dy="-0.7625"/>
<feGaussianBlur stdDeviation="0.285938"/>
<feComposite in2="hardAlpha" operator="out"/>
<feColorMatrix type="matrix" values="0 0 0 0 0.168627 0 0 0 0 0.427451 0 0 0 0 0.839216 0 0 0 1 0"/>
<feBlend mode="normal" in2="effect1_dropShadow_3056_12420" result="effect2_dropShadow_3056_12420"/>
<feBlend mode="normal" in="SourceGraphic" in2="effect2_dropShadow_3056_12420" result="shape"/>
</filter>
<linearGradient id="paint0_linear_3056_12420" x1="21.4999" y1="3.20764" x2="21.4999" y2="4.39677" gradientUnits="userSpaceOnUse">
<stop stop-color="#50A2C2"/>
<stop offset="1" stop-color="#58B4E7"/>
</linearGradient>
<linearGradient id="paint1_linear_3056_12420" x1="12.2612" y1="6.03739" x2="15.1317" y2="5.46252" gradientUnits="userSpaceOnUse">
<stop stop-color="#3889C2"/>
<stop offset="1" stop-color="#3889C2" stop-opacity="0"/>
</linearGradient>
<radialGradient id="paint2_radial_3056_12420" cx="0" cy="0" r="1" gradientUnits="userSpaceOnUse" gradientTransform="translate(29.3224 5.05302) rotate(104.3) scale(2.15868 1.20388)">
<stop stop-color="#7ECCF4"/>
<stop offset="1" stop-color="#7ECCF4" stop-opacity="0"/>
</radialGradient>
<linearGradient id="paint3_linear_3056_12420" x1="15.7475" y1="29.7031" x2="10.1287" y2="28.8828" gradientUnits="userSpaceOnUse">
<stop stop-color="#5EAEFF"/>
<stop offset="0.883" stop-color="#337FDB"/>
</linearGradient>
<radialGradient id="paint4_radial_3056_12420" cx="0" cy="0" r="1" gradientUnits="userSpaceOnUse" gradientTransform="translate(22.1971 6.98113) rotate(116.37) scale(8.1487 11.7533)">
<stop stop-color="#59ADF3"/>
<stop offset="1" stop-color="#59ADF3" stop-opacity="0"/>
</radialGradient>
<radialGradient id="paint5_radial_3056_12420" cx="0" cy="0" r="1" gradientUnits="userSpaceOnUse" gradientTransform="translate(19.2755 27.5296) rotate(-170.754) scale(1.78689 18.4686)">
<stop offset="0.156" stop-color="#3087E9"/>
<stop offset="0.948" stop-color="#3087E9" stop-opacity="0"/>
</radialGradient>
<linearGradient id="paint6_linear_3056_12420" x1="23.2942" y1="24.1657" x2="29.6021" y2="23.1774" gradientUnits="userSpaceOnUse">
<stop offset="0.189" stop-color="#367FEC"/>
<stop offset="1" stop-color="#6ABEFF"/>
</linearGradient>
<linearGradient id="paint7_linear_3056_12420" x1="26.124" y1="6.57031" x2="27.2724" y2="15.2656" gradientUnits="userSpaceOnUse">
<stop stop-color="#5CB2F5"/>
<stop offset="1" stop-color="#5CB2F5" stop-opacity="0"/>
</linearGradient>
<linearGradient id="paint8_linear_3056_12420" x1="33.239" y1="30.11" x2="31.9882" y2="30.1848" gradientUnits="userSpaceOnUse">
<stop stop-color="#4EADEA"/>
<stop offset="1" stop-color="#4EADEA" stop-opacity="0"/>
</linearGradient>
<linearGradient id="paint9_linear_3056_12420" x1="28.3145" y1="10.2598" x2="30.7006" y2="9.30031" gradientUnits="userSpaceOnUse">
<stop stop-color="#6DC2FD"/>
<stop offset="1" stop-color="#6DC2FD" stop-opacity="0"/>
</linearGradient>
<linearGradient id="paint10_linear_3056_12420" x1="30.9749" y1="10.4356" x2="30.0824" y2="10.5695" gradientUnits="userSpaceOnUse">
<stop offset="0.258" stop-color="#60BBEB"/>
<stop offset="1" stop-color="#5FBBEC" stop-opacity="0"/>
</linearGradient>
<linearGradient id="paint11_linear_3056_12420" x1="21.8672" y1="6.87744" x2="21.8672" y2="15.5321" gradientUnits="userSpaceOnUse">
<stop stop-color="#3371DB"/>
<stop offset="1" stop-color="#355CD5"/>
</linearGradient>
<linearGradient id="paint12_linear_3056_12420" x1="23.9908" y1="10.0366" x2="22.5353" y2="10.0983" gradientUnits="userSpaceOnUse">
<stop offset="0.234" stop-color="#4783E5"/>
<stop offset="1" stop-color="#4783E5" stop-opacity="0"/>
</linearGradient>
<radialGradient id="paint13_radial_3056_12420" cx="0" cy="0" r="1" gradientUnits="userSpaceOnUse" gradientTransform="translate(22.0027 4.0476) rotate(124.756) scale(1.22309 1.07765)">
<stop offset="0.283" stop-color="#4383D8"/>
<stop offset="1" stop-color="#3368D2"/>
</radialGradient>
<linearGradient id="paint14_linear_3056_12420" x1="33.0563" y1="37.6673" x2="26.6579" y2="38.6451" gradientUnits="userSpaceOnUse">
<stop stop-color="#4483F1"/>
<stop offset="1" stop-color="#2C55E2"/>
</linearGradient>
<linearGradient id="paint15_linear_3056_12420" x1="31.8659" y1="39.1373" x2="31.7845" y2="38.3983" gradientUnits="userSpaceOnUse">
<stop stop-color="#365CF2"/>
<stop offset="1" stop-color="#365CF2" stop-opacity="0"/>
</linearGradient>
<linearGradient id="paint16_linear_3056_12420" x1="17.6268" y1="38.1529" x2="8.7346" y2="36.9625" gradientUnits="userSpaceOnUse">
<stop stop-color="#4082FB"/>
<stop offset="1" stop-color="#214DB5"/>
</linearGradient>
<clipPath id="clip0_3056_12420">
<rect width="42" height="42" fill="white" transform="translate(0.5 0.5)"/>
</clipPath>
</defs>
</svg>
