<svg width="43" height="43" viewBox="0 0 43 43" fill="none" xmlns="http://www.w3.org/2000/svg">
<path d="M7.86313 2.541C7.86313 2.541 8.78845 1.15631 12.9524 1.89459C16.9292 2.60006 17.6872 3.7124 17.3755 4.47037C17.067 5.22178 12.6866 6.85912 12.6866 6.85912L9.5136 7.476C9.5136 7.476 9.37907 7.82709 9.30032 8.34881C9.22157 8.86725 9.12313 10.3537 9.12313 10.3537L7.33813 7.23975L7.86313 2.541Z" fill="#CA8865"/>
<path d="M17.533 20.4303C17.533 20.4303 18.5009 20.2236 19.1178 19.4919C19.7216 18.7733 20.3023 17.6708 20.322 17.1425C20.3516 16.4075 20.1448 16.086 20.0005 15.9678C19.6559 15.6922 17.7692 17.7889 17.7692 17.7889L17.533 20.4303Z" fill="#E4BF8F"/>
<path d="M27.7869 5.92065L24.0856 8.68347C24.0856 8.68347 23.4392 9.56612 25.7295 9.97628C28.0198 10.3864 30.0476 10.416 30.0476 10.416C30.0476 10.416 34.2476 8.56534 34.1886 8.27003C34.1295 7.97472 33.808 6.21269 33.6603 6.24222C33.5159 6.27175 27.7869 5.92065 27.7869 5.92065Z" fill="#CA8865"/>
<path d="M24.9355 29.3324C24.8469 29.6835 24.5844 30.215 24.2595 30.6252C24.0003 30.9533 23.4786 31.0649 23.495 31.3602C23.5245 31.8589 24.6402 32.7121 24.9945 32.7121C25.3489 32.7121 25.9067 32.1542 25.8477 31.3897C25.7886 30.6252 25.7886 29.2438 25.7886 29.2438L24.9355 29.3324Z" fill="#EFC2A2"/>
<path d="M16.4764 14.0581L16.9161 12.7062L17.6216 11.7087L18.7667 12.4733L19.8824 15.4986L19.8594 17.0506C19.8594 17.0506 19.4427 17.9923 18.4714 19.3737C17.5002 20.7551 17.1983 21.3458 16.5913 22.5172C16.1516 23.3703 15.62 24.7255 15.387 26.5137C15.0359 29.2175 15.387 31.3897 15.328 33.9753C15.2689 36.5609 14.9506 39.1334 14.1008 40.0423C13.333 40.8626 12.2731 41.3483 10.0419 41.3778C7.81063 41.4073 7.64329 40.843 7.64329 40.843L6.51782 27.8361L13.1853 13.9105L16.4764 14.0581Z" fill="#CA8865"/>
<path d="M15.9942 14.4519C15.9942 14.4519 15.2001 14.3272 14.1304 15.246C13.2642 15.9908 12.6637 17.6544 11.6235 20.3615C10.6293 22.9405 9.73682 25.0044 8.99197 26.3202C8.24713 27.636 7.69916 28.6302 7.35463 29.3258C7.05604 29.923 5.94041 29.6999 5.94041 29.5982C5.94041 29.4965 4.74932 28.2562 4.74932 28.2562L4.65088 26.7402C4.65088 26.7402 6.36369 24.2826 6.36369 24.2071C6.36369 24.1316 8.32588 19.9119 8.32588 19.9119C8.32588 19.9119 9.89104 13.8285 9.94025 13.6546C9.98947 13.4807 12.0993 10.649 12.0993 10.649L16.1221 10.0288C16.1221 10.0288 16.4437 12.2633 16.4437 12.3618C16.4437 12.4602 16.3945 14.3994 16.3945 14.3994L15.9942 14.4519Z" fill="#865C52"/>
<path d="M16.4798 9.86145C16.4798 9.86145 16.9982 9.98942 17.6742 10.498C18.4813 11.1083 19.0227 11.8335 19.4362 12.575C19.807 13.2411 20.0465 14.2124 20.1252 15.118C20.204 16.0236 19.9874 16.8702 19.8496 17.0474C19.7118 17.2246 19.2984 14.7636 18.8259 13.7432C18.3632 12.7424 17.9399 12.4241 17.3493 12.4832C16.7357 12.5455 16.7784 12.7194 16.7784 12.7194L16.4798 9.86145ZM9.69087 28.5941L10.6949 28.5219C10.6949 28.5219 11.5152 31.4816 11.7909 34.3068C12.0665 37.1319 12.0632 38.6479 12.0337 39.3172C12.0042 39.9866 11.8204 40.5608 11.0624 40.9579C10.3045 41.3516 8.87712 41.2925 8.17821 41.1711C7.47931 41.0497 6.91821 40.2852 6.37353 39.3435C5.82884 38.4018 5.0479 36.6332 4.53603 34.3986C3.74524 30.9664 4.02087 28.3874 4.02087 28.3874L6.84603 29.8738L9.69087 28.5941Z" fill="#DCA282"/>
<path d="M9.00823 14.6618C9.00823 14.6618 8.49964 18.1104 8.07636 19.4459C7.6498 20.7814 7.20354 22.1004 5.95995 23.9215C5.13964 25.1257 4.26026 25.864 3.95511 26.6843C3.64995 27.5046 3.68276 28.2921 3.98464 28.932C4.28651 29.5718 4.60808 29.7326 4.60808 29.7326C4.60808 29.7326 4.37183 30.1264 4.02729 30.4348C3.71558 30.7104 3.30542 30.8614 3.30542 31.0418C3.30542 31.2223 3.56792 31.6423 4.0437 31.9934C4.36526 32.2296 4.84761 32.4692 4.97886 32.4692C5.11011 32.4692 5.91401 30.9893 5.91401 31.0385C5.91401 31.0878 6.67198 32.7842 6.81964 32.8006C7.55792 32.8826 8.62433 31.7014 8.62433 31.4159C8.62433 31.2354 7.41354 30.1985 7.41354 30.1985C7.41354 30.1985 8.98526 30.297 10.4487 28.886C11.9121 27.4751 13.9006 24.1971 15.3476 20.3056C16.7946 16.414 17.4214 13.0114 17.0506 11.2231C16.6798 9.43479 16.1975 9.31995 16.1975 9.31995L15.6593 10.0582C15.6593 10.0582 16.2565 11.5906 15.9153 13.7496C15.574 15.9087 14.3271 20.2235 12.9621 22.947C11.7842 25.2996 10.1239 27.8853 8.07964 28.8237C6.03542 29.7589 4.41776 27.8229 5.24136 26.4973C5.75323 25.6737 6.68839 24.709 7.56776 22.8912C8.57183 20.8174 9.2412 17.9792 9.44136 16.9849C9.64151 15.9907 9.86792 14.9703 9.86792 14.9703L9.00823 14.6618Z" fill="#F8E2D5"/>
<path d="M6.67195 13.8843C6.67195 13.8843 5.47757 17.0474 5.52351 17.3821C5.56945 17.7168 6.1896 19.049 6.6457 19.6888C7.42663 20.7847 8.03366 21.5197 8.17804 21.5197C8.32241 21.5197 9.13616 18.4091 9.13616 18.4091C9.13616 18.4091 8.51273 17.5232 8.08945 16.7521C7.32491 15.3641 7.65304 14.3404 7.6071 14.2682C7.55788 14.196 6.67195 13.8843 6.67195 13.8843Z" fill="#CA8865"/>
<path d="M5.41191 33.8244C5.05754 33.9426 5.21504 34.484 5.54972 35.5307C5.88441 36.5774 6.84254 38.9333 8.04019 39.7405C8.84738 40.2852 10.1927 40.3377 10.1139 39.3697C10.0647 38.7463 9.11972 38.7299 8.37816 38.0047C7.3741 37.0269 6.79988 36.1804 6.33066 35.3043C6.0616 34.8055 5.78597 33.6997 5.41191 33.8244Z" fill="#FDE1CC"/>
<path d="M12.142 5.17255C8.03383 4.54911 7.9518 2.72474 7.93868 2.63943C7.90258 2.38677 7.82383 2.58036 7.79102 2.68865C7.75821 2.79693 7.2168 5.46458 7.08555 6.08146C6.95102 6.69833 6.2193 9.40865 6.22915 9.56286C6.23899 9.71708 6.34399 10.2618 6.53102 10.6227C6.71805 10.9804 7.17415 11.886 7.17415 11.886C7.17415 11.886 6.59336 12.283 6.13399 12.6407C5.67461 12.9983 5.23165 13.6546 5.23165 13.6546C5.23165 13.6546 5.12008 13.8646 5.14633 14.9802C5.17258 16.0958 5.53024 17.3952 5.53024 17.3952C5.53024 17.3952 5.8354 16.6372 6.77383 15.7579C7.71555 14.8785 8.58836 14.4093 8.58836 14.4093C8.58836 14.4093 9.67774 16.1057 10.731 17.4674C11.7843 18.8291 13.8876 20.811 13.8876 20.811C13.8876 20.811 14.3076 19.7347 14.4454 19.3246C14.5832 18.9144 14.9081 17.8349 14.9081 17.8349C14.9081 17.8349 14.1862 17.0868 12.8999 15.8005C11.6137 14.5143 11.0001 13.1755 11.0001 13.1755C11.0001 13.1755 12.5095 12.5586 13.9434 11.7285C15.7809 10.6686 16.7127 9.94677 16.7127 9.94677C16.7127 9.94677 16.949 8.96896 17.1163 7.51536C17.3066 5.87474 17.451 4.18161 17.451 4.18161C17.451 4.18161 16.4765 5.8288 12.142 5.17255ZM12.4406 9.2249C11.4004 9.68755 9.64821 10.4127 9.64821 10.4127L8.27665 6.94443C8.27665 6.94443 9.0379 7.50224 10.6129 7.9288C12.1912 8.35536 14.6193 8.2438 14.6193 8.2438C14.6193 8.2438 13.4774 8.75896 12.4406 9.2249ZM25.0832 3.66318L24.0857 8.68021C24.0857 8.68021 26.1693 8.02396 28.8632 7.7713C31.5571 7.51865 33.7687 7.61708 33.7687 7.98458C33.7687 8.35208 30.996 8.62443 28.3415 9.80568C25.687 10.9869 23.7281 12.5783 23.7281 12.5783C23.7281 12.5783 23.669 14.1468 23.7871 15.4658C23.9052 16.7849 24.0988 17.7726 24.0988 17.7726C24.0988 17.7726 25.5524 18.7602 26.6582 19.3246C27.764 19.8857 28.4038 20.1383 28.4038 20.1383L29.4702 17.2508C29.4702 17.2508 28.056 16.5913 27.4359 16.1844C26.8157 15.7776 26.2152 15.5446 26.1759 15.059C26.1365 14.5733 27.8427 13.4315 30.0346 12.4438C32.2265 11.4561 33.5816 11.2429 33.5816 11.2429C33.5816 11.2429 35.0156 10.2749 34.9959 10.1961C34.9762 10.1174 34.6481 8.6638 34.6677 6.86239C34.6874 5.06099 34.7071 3.74193 34.7071 3.74193C34.7071 3.74193 33.5816 2.69521 29.8804 2.84943C26.1693 3.00693 25.0832 3.66318 25.0832 3.66318Z" fill="#E7AC84"/>
<path d="M35.9671 11.1707L36.292 15.0032L33.6013 29.2667L36.0459 39.6027C36.0459 39.6027 35.3273 41.4402 32.2166 41.4927C30.3004 41.5255 29.6146 40.6953 29.3226 40.4722C29.0305 40.2491 27.3243 36.9678 26.6516 35.1107C25.1587 30.9927 24.9355 29.3291 24.9355 29.3291L26.2251 26.2874L29.1191 17.7692L31.8491 13.041L34.4971 10.5964L35.9671 11.1707Z" fill="#DDA281"/>
<path d="M36.292 10.2749L34.8252 10.8852C34.8252 10.8852 35.8326 11.3347 35.8457 12.8835C35.8687 16.1352 34.2116 18.7766 32.7909 21.3721C31.8787 23.039 31.0945 23.6985 30.3037 23.9282C29.7557 24.089 29.1749 23.9347 29.2274 24.3318C29.2963 24.8601 30.5399 25.139 30.5399 25.139C30.5399 25.139 29.9263 26.0577 29.1618 26.5827C28.3973 27.1077 27.3702 27.3899 27.5441 27.741C27.718 28.0921 29.7524 27.6754 29.7524 27.6754C29.7524 27.6754 29.293 28.5482 28.8566 28.9222C28.4202 29.2963 27.9838 29.4472 28.2004 29.7754C28.4202 30.1035 29.3816 29.7524 29.6441 29.6441C29.9066 29.5358 30.3004 29.316 30.3004 29.316C30.3004 29.316 29.9657 32.2691 30.3004 34.5857C30.5859 36.5544 31.3307 39.0351 32.7876 39.9997C33.5784 40.5247 35.1107 40.4788 35.744 40.003C36.2198 39.6454 36.7054 38.3329 36.771 37.611C36.8366 36.8891 33.1223 29.8837 33.1223 29.8837L35.593 21.7297L39.1795 17.9038C39.1795 17.9038 39.7471 17.1163 39.7701 15.433C39.793 13.7497 38.6118 11.8696 37.8899 11.1937C37.1615 10.5144 36.292 10.2749 36.292 10.2749Z" fill="#CA8865"/>
<path d="M37.3353 18.7142L36.7217 16.8537C36.7217 16.8537 37.4206 14.1664 36.9612 12.657C36.5018 11.1476 35.78 10.8982 35.0811 10.8654C34.6709 10.8457 31.4618 13.625 29.5423 18.4025C27.6228 23.1767 26.7631 27.0912 25.9789 28.2265C25.1947 29.3618 24.6992 29.5751 24.4925 29.2437C24.102 28.617 24.7681 27.9115 25.1979 27.1306C25.6278 26.3464 27.649 19.9545 28.6432 17.6576C29.7786 15.0359 31.9212 11.8826 33.7226 10.5143C34.8087 9.68747 35.6126 9.71372 35.6126 9.71372C35.6126 9.71372 37.2729 10.2026 38.2114 11.4561C39.1498 12.7095 39.0547 14.5306 38.7429 16.6437C38.4312 18.7568 37.3353 18.7142 37.3353 18.7142ZM26.5334 29.3257C25.992 29.4832 26.1429 30.4315 26.8123 32.6529C27.6326 35.3698 28.9189 38.0014 29.1453 38.4181C29.3717 38.8348 29.5817 39.2187 29.8934 39.0612C30.2084 38.9037 29.7556 38.1392 29.5095 37.5289C29.224 36.8168 28.594 35.0417 27.8361 32.4232C27.4226 30.9795 27.1962 29.1354 26.5334 29.3257Z" fill="#F8E2D5"/>
<path d="M33.9032 12.6209C33.6374 12.5586 32.6661 13.2641 31.9508 15.3739C31.2355 17.4805 31.3208 19.2622 31.9147 19.2753C32.6104 19.2917 32.4725 17.0802 33.0107 15.5642C33.6341 13.8317 34.2707 12.7063 33.9032 12.6209Z" fill="#F8E2D5"/>
<path d="M38.6314 16.2795C37.1155 15.5347 33.6505 18.8061 31.8294 26.704C30.0083 34.602 31.8261 40.3869 35.3863 39.2876C39.1991 38.1129 34.5627 29.1322 35.5175 25.5753C35.8949 24.1644 36.1409 23.4983 36.4395 22.7567C36.83 21.7887 37.4009 20.8306 37.5453 20.6042C38.09 19.7544 40.482 17.1884 38.6314 16.2795Z" fill="#E4BF8C"/>
<path d="M32.6234 23.7838L36.4592 22.76C36.4592 22.76 35.7242 24.5778 35.5273 25.5163C35.3633 26.3005 35.4158 26.8747 35.4158 26.8747L31.5078 28.0264C31.5078 28.0264 31.8064 26.6122 32.0492 25.7164C32.292 24.8206 32.6234 23.7838 32.6234 23.7838Z" fill="#DDA281"/>
</svg>
