<svg width="18" height="25" viewBox="0 0 18 25" fill="none" xmlns="http://www.w3.org/2000/svg">
<path d="M11.992 7.444C11.8213 6.65466 11.5227 6.068 11.096 5.684C10.6693 5.27867 10.0613 5.076 9.272 5.076C8.056 5.076 7.18133 5.60933 6.648 6.676C6.11467 7.72133 5.83733 9.38533 5.816 11.668C6.28533 10.9213 6.95733 10.3347 7.832 9.908C8.728 9.48133 9.70933 9.268 10.776 9.268C12.8667 9.268 14.5413 9.92933 15.8 11.252C17.08 12.5747 17.72 14.42 17.72 16.788C17.72 18.3453 17.4 19.7107 16.76 20.884C16.1413 22.0573 15.224 22.9747 14.008 23.636C12.8133 24.2973 11.3947 24.628 9.752 24.628C6.46667 24.628 4.184 23.604 2.904 21.556C1.624 19.4867 0.984 16.5213 0.984 12.66C0.984 8.60667 1.656 5.59867 3 3.636C4.36533 1.652 6.54133 0.659998 9.528 0.659998C11.128 0.659998 12.472 0.979998 13.56 1.62C14.6693 2.23867 15.5013 3.06 16.056 4.084C16.632 5.108 16.9733 6.228 17.08 7.444H11.992ZM9.464 13.588C8.54667 13.588 7.77867 13.8653 7.16 14.42C6.56267 14.9533 6.264 15.7213 6.264 16.724C6.264 17.748 6.54133 18.548 7.096 19.124C7.672 19.7 8.48267 19.988 9.528 19.988C10.4667 19.988 11.2027 19.7107 11.736 19.156C12.2907 18.58 12.568 17.8013 12.568 16.82C12.568 15.8173 12.3013 15.028 11.768 14.452C11.2347 13.876 10.4667 13.588 9.464 13.588Z" fill="#D0A353"/>
</svg>
