<svg width="43" height="43" viewBox="0 0 43 43" fill="none" xmlns="http://www.w3.org/2000/svg">
<g clip-path="url(#clip0_3056_12473)">
<path d="M31.9999 22.9886C30.8531 22.9886 29.7914 23.3316 28.8884 23.9033V29.2105H26.2051C26.4092 32.2473 28.9106 34.6553 31.9987 34.6553C33.5458 34.6553 35.0296 34.0407 36.1235 32.9468C37.2175 31.8528 37.8321 30.3691 37.8321 28.822V22.9886H31.9999Z" fill="#55ACEE"/>
<path d="M27.3274 27.3322L27.3332 8.66553L37.8332 8.66903L37.8274 27.3357L27.3274 27.3322Z" fill="#1C6399"/>
<path d="M28.7358 25.5261L36.1488 32.9391L28.1244 40.9635L20.7114 33.5505L28.7358 25.5261Z" fill="#1C6399"/>
<path d="M35.4999 5.16663H29.6666C28.3832 5.16663 27.3332 6.21663 27.3332 7.49996V9.83329H37.8332V7.49996C37.8332 6.21663 36.7832 5.16663 35.4999 5.16663ZM17.9999 18.322C16.8531 18.322 15.7914 18.665 14.8884 19.2366V24.5438H12.2051C12.4092 27.5806 14.9106 29.9886 17.9987 29.9886C19.5458 29.9886 21.0296 29.374 22.1235 28.2801C23.2175 27.1861 23.8321 25.7024 23.8321 24.1553V18.322H17.9999Z" fill="#55ACEE"/>
<path d="M13.3264 22.6654L13.3334 3.99878L23.8334 4.00228L23.8264 22.6689L13.3264 22.6654Z" fill="#1C6399"/>
<path d="M28.1219 40.9623C27.1373 41.9469 25.802 42.5 24.4096 42.5C23.0172 42.5 21.6818 41.9469 20.6973 40.9623C19.7127 39.9778 19.1596 38.6424 19.1596 37.25C19.1596 35.8576 19.7127 34.5222 20.6973 33.5377C20.6973 33.5377 22.0378 33.6928 25.0023 36.6573C27.9668 39.6218 28.1219 40.9623 28.1219 40.9623ZM21.4999 0.5H15.6666C14.3833 0.5 13.3333 1.55 13.3333 2.83333V5.16667H23.8333V2.83333C23.8333 1.55 22.7833 0.5 21.4999 0.5Z" fill="#55ACEE"/>
<path d="M14.7358 20.8595L22.1488 28.2725L14.1244 36.2968L6.71143 28.8838L14.7358 20.8595Z" fill="#1C6399"/>
<path d="M14.122 36.2956C13.1375 37.2802 11.8021 37.8333 10.4097 37.8333C9.01731 37.8333 7.68194 37.2802 6.69737 36.2956C5.71279 35.3111 5.15967 33.9757 5.15967 32.5833C5.15967 31.1909 5.71279 29.8555 6.69737 28.871C6.69737 28.871 8.03787 29.0261 11.0024 31.9906C13.9669 34.9551 14.122 36.2956 14.122 36.2956Z" fill="#55ACEE"/>
<path d="M27.3264 12.2448H37.8264V14.5781H27.3264V12.2448ZM27.3264 16.9115H37.8264V19.2448H27.3264V16.9115ZM13.3264 7.57812H23.8264V9.91146H13.3264V7.57812ZM13.3264 12.2448H23.8264V14.5781H13.3264V12.2448Z" fill="#FFCC4D"/>
</g>
<defs>
<clipPath id="clip0_3056_12473">
<rect width="42" height="42" fill="white" transform="translate(0.5 0.5)"/>
</clipPath>
</defs>
</svg>
