<svg width="43" height="43" viewBox="0 0 43 43" fill="none" xmlns="http://www.w3.org/2000/svg">
<g clip-path="url(#clip0_3056_12462)">
<path d="M11.5512 22.4024C10.6522 21.7264 9.6645 21.2178 8.562 20.9521C8.27981 20.8831 7.22325 20.6141 6.34059 20.5911C5.53668 20.5681 4.69668 20.706 4.40137 21.2671C4.23403 21.5853 4.24059 21.8807 4.20121 22.2317C3.9584 24.2694 4.8509 26.8091 6.37012 28.2167C6.93121 28.7352 7.7384 29.1388 8.47668 29.2897C10.3273 29.6671 11.8793 29.2569 12.6964 27.8066C12.8539 27.531 12.9687 27.2324 13.0442 26.9272C13.182 26.3792 13.1951 25.7985 13.0868 25.2406C12.9425 24.4597 12.365 23.016 11.5512 22.4024ZM27.5473 25.2702C26.5104 25.0044 24.2661 24.6927 22.7173 24.8896C21.9757 24.965 21.244 25.1225 20.6731 25.4769C19.82 26.0052 19.564 27.088 19.669 28.0363C19.8298 29.5128 20.5386 30.9566 21.6772 31.9344C22.8354 32.9352 24.3842 33.2896 25.8673 33.4864C26.5662 33.5783 27.2979 33.6439 27.9936 33.5553C28.7056 33.4635 29.3782 33.2141 29.9393 32.6694C30.8515 31.7933 31.4717 30.3922 31.4782 29.1158C31.4815 26.8255 29.585 25.7886 27.5473 25.2702Z" fill="#40C0E7"/>
<path d="M36.8693 18.6092C36.1638 19.482 35.4255 20.3286 34.7102 21.1948C34.1918 21.8314 33.6208 22.9995 32.8202 23.3079C32.4823 23.4392 32.2198 23.2686 31.9179 23.1537C31.6554 23.052 31.3863 22.9536 31.1238 22.8584C30.753 22.7206 30.3757 22.5598 29.9951 22.4614C27.7901 21.8872 25.5752 21.5164 23.2915 21.6083C22.1332 21.6575 21.116 21.7067 19.9807 21.9561C19.3179 22.1037 18.7437 22.4089 18.0546 22.4483C17.4738 22.4844 16.8766 22.4548 16.3188 22.2776C15.7544 22.0972 15.4591 21.7231 14.9998 21.3819C14.209 20.7978 13.6019 20.089 12.7258 19.6034C12.0729 19.2425 11.3838 18.957 10.6718 18.7339C10.1665 18.5731 9.39866 18.5239 8.98194 18.1629C8.91304 18.1039 8.77194 17.9595 8.77522 17.8676C8.7785 17.7298 8.98522 17.6379 9.0771 17.569C10.7965 16.3419 12.5191 15.1737 14.3435 14.0975C15.0916 13.6545 15.8233 13.1722 16.6174 12.8014C17.8216 12.2403 19.331 12.0106 20.6435 12.2567C21.746 12.4601 21.9987 13.52 22.5269 14.3337C23.0257 15.1048 24.0823 15.469 24.8894 14.9834C25.9066 14.3731 25.9919 12.8014 25.4276 11.8433C24.6926 10.5931 22.6943 10.1239 21.3752 9.8942C20.6369 9.76623 19.8724 9.72357 19.121 9.74982C14.816 9.88763 11.2526 12.867 7.49554 14.5995C6.14038 15.2262 4.71632 15.725 3.4235 16.4862C1.76647 16.9719 0.207879 17.8644 0.880536 19.5181C1.03147 19.8856 1.25788 20.2269 1.38913 20.6042C1.53679 21.0275 1.44491 21.372 1.44163 21.8019C1.43835 22.1792 1.45475 22.5598 1.48757 22.9372C1.55647 23.7214 1.691 24.499 1.89116 25.2636C2.29147 26.7828 2.94444 28.2626 3.90585 29.5128C4.80819 30.6875 6.01241 31.6522 7.45288 32.0722C7.84335 32.187 8.2535 32.2625 8.66038 32.2953C11.4494 32.5184 13.7069 31.5275 14.9932 28.9976C15.4033 28.197 15.3344 26.937 16.6043 27.2454C17.3524 27.4292 17.2638 28.6859 17.3721 29.2634C17.6543 30.7761 18.3269 32.1936 19.459 33.2534C19.5574 33.3453 19.6558 33.4339 19.7608 33.5225C21.8182 35.2287 24.5613 36.2919 27.2421 36.2984C28.0033 36.3017 28.7777 36.177 29.5029 35.9375C30.8646 35.4814 32.1476 34.6709 33.0794 33.5651C33.8407 32.6628 34.264 31.5537 34.5134 30.4151C34.6315 29.8803 34.6643 29.3192 34.8513 28.804C35.1269 28.0297 35.7865 27.3144 35.7832 26.4612C35.7799 26.1233 35.6093 25.8083 35.7241 25.4736C35.8423 25.1389 36.0785 24.8108 36.2458 24.499C36.8923 23.2981 37.4763 22.0644 38.1687 20.8897C38.3885 20.5189 38.5952 20.135 38.8544 19.7904C38.9955 19.6001 39.3171 19.1408 39.5796 19.2753C39.8323 19.4033 39.7207 19.9447 39.7305 20.1645C39.7666 20.975 40.2883 22.084 41.2957 21.664C41.9191 21.4048 42.2407 20.952 42.2702 20.2662C42.3227 19.0883 42.1357 17.8611 41.6304 16.7914C40.4688 14.3042 37.7355 17.5297 36.8693 18.6092ZM13.0441 26.9272C12.9687 27.2323 12.8538 27.5276 12.6963 27.8065C11.8793 29.2569 10.3273 29.667 8.47663 29.2897C7.73835 29.1387 6.93444 28.7351 6.37007 28.2167C4.85413 26.809 3.95835 24.2694 4.20116 22.2317C4.24382 21.8806 4.23397 21.5886 4.40132 21.267C4.69663 20.7059 5.53663 20.5681 6.34054 20.5911C7.21991 20.6173 8.27975 20.8864 8.56194 20.952C9.66444 21.2178 10.6521 21.7231 11.5512 22.4023C12.3649 23.0159 12.9391 24.4597 13.0868 25.2406C13.1951 25.7984 13.1819 26.3792 13.0441 26.9272ZM29.936 32.6661C29.3749 33.2108 28.699 33.4601 27.9902 33.552C27.2946 33.6406 26.5629 33.5783 25.864 33.4831C24.3841 33.2862 22.8354 32.9319 21.6738 31.9311C20.5352 30.95 19.8265 29.5095 19.6657 28.0329C19.5607 27.0814 19.8166 25.9986 20.6698 25.4736C21.2407 25.1192 21.9724 24.965 22.714 24.8862C24.2627 24.6894 26.5071 25.0044 27.544 25.2669C29.5816 25.7853 31.4782 26.8222 31.4716 29.1092C31.4683 30.3889 30.8482 31.79 29.936 32.6661Z" fill="#855C52"/>
<path d="M29.5457 28.7909C29.0667 28.3217 28.5942 29.0633 27.157 29.8344C26.3859 30.2478 25.349 30.4709 24.5287 30.7794C24.3285 30.8548 24.089 30.904 23.9479 31.0812C23.3901 31.7703 24.9093 31.9934 25.2604 32.082C26.6156 32.4298 29.2504 32.1706 29.6967 30.1559C29.7984 29.6965 29.8574 29.0961 29.5457 28.7909ZM11.6367 25.8115C11.6235 25.8017 11.6071 25.7919 11.594 25.782C11.1838 25.5392 10.8688 26.1397 10.6228 26.3661C10.3406 26.6253 9.99275 26.8714 9.6515 27.0814C9.38244 27.2454 8.8476 27.4226 8.74916 27.754C8.55885 28.4103 9.66463 28.2594 9.98619 28.22C10.7015 28.1248 11.4956 27.7245 11.7449 26.9961C11.8532 26.6778 11.9484 26.0511 11.6367 25.8115Z" fill="white"/>
<path d="M8.30618 19.295C8.38821 18.8455 7.85336 18.7011 7.52852 18.6026C6.84602 18.3992 6.15039 18.2319 5.46789 18.0284C4.70336 17.7987 4.14883 17.4017 3.32196 17.4017C2.8429 17.4017 2.1243 17.5428 1.85524 17.9825C1.56649 18.4583 1.59274 19.1375 1.87493 19.6034C2.23914 20.2039 2.14727 20.8208 2.16368 21.4836C2.17352 21.9594 2.10133 22.6648 2.41961 23.0487C2.64274 23.3145 2.88883 23.2489 3.04961 22.97C3.26289 22.5959 3.08899 22.0414 3.19727 21.628C3.41055 20.8142 3.99789 20.1645 4.72633 19.7675C5.61883 19.2819 6.60977 19.5608 7.56133 19.633C7.85336 19.6526 8.23727 19.6592 8.30618 19.295ZM25.4638 22.6681C24.4926 22.4023 22.9307 22.5369 22.4385 22.5336C21.7068 22.5303 20.9981 22.6878 20.2991 22.8551C19.8266 22.9667 19.3541 23.0848 18.9177 23.1997C17.9268 23.4622 15.4987 22.13 15.8006 24.2628C15.9515 25.339 17.5757 25.444 18.3763 25.2308C19.049 25.0536 19.6626 24.6106 20.2926 24.3251C21.1195 23.9544 21.966 23.7247 22.8618 23.5836C23.6099 23.4655 24.3581 23.413 25.1127 23.495C25.4343 23.5311 26.4646 23.9347 26.2546 23.2358C26.166 22.9536 25.8641 22.7797 25.4638 22.6681ZM23.3474 11.0984C22.6879 11.2887 23.1604 11.9548 23.3835 12.3158C23.6395 12.7325 23.6165 13.2608 24.1677 13.4084C24.5976 13.5233 25.1685 13.3559 25.2801 12.8834C25.4573 12.1222 24.7091 11.3412 24.0332 11.1411C23.8462 11.0853 23.6493 11.0623 23.4524 11.082C23.4163 11.082 23.3802 11.0886 23.3474 11.0984ZM38.5232 17.4083C38.4609 17.4903 38.4084 17.569 38.3657 17.6445C38.1951 17.9365 38.0638 18.4812 38.5626 18.514C38.7923 18.5272 39.0679 18.3369 39.2812 18.2548C39.7766 18.0612 40.1868 17.5395 40.7676 17.5953C41.437 17.6576 41.2663 16.939 40.9776 16.6044C40.2721 15.784 39.0646 16.693 38.5232 17.4083Z" fill="#B89278"/>
</g>
<defs>
<clipPath id="clip0_3056_12462">
<rect width="42" height="42" fill="white" transform="translate(0.5 0.5)"/>
</clipPath>
</defs>
</svg>
