<svg width="43" height="43" viewBox="0 0 43 43" fill="none" xmlns="http://www.w3.org/2000/svg">
<g clip-path="url(#clip0_3056_12451)">
<path d="M42.0767 10.1502C41.381 9.3463 39.6452 8.0338 38.5624 7.11833C37.4501 6.17989 35.0646 4.38177 34.3395 4.08974C31.3896 2.90192 30.0607 2.49505 27.2159 1.71411C27.2159 1.71411 24.4826 2.38349 21.4999 2.38349C18.5173 2.38349 15.784 1.71411 15.784 1.71411C12.9359 2.49505 11.6102 2.90521 8.6604 4.08974C7.93196 4.38177 5.54649 6.17989 4.43743 7.11833C3.35462 8.0338 1.61556 9.3463 0.923213 10.1502C0.854307 10.2257 0.818213 10.5308 0.821495 10.836C0.867432 12.575 1.78618 13.5332 2.96087 15.3477C4.23071 17.3099 5.13634 18.2811 6.10759 19.0293C6.27821 19.1736 6.71462 19.0785 7.02306 18.8357C8.06321 18.0121 8.45368 17.4871 9.1329 17.1557C9.13618 17.1557 9.67759 16.8932 9.85478 17.0999C10.0943 17.3821 9.96306 18.2779 9.66446 21.8315C9.66446 21.8315 9.45774 26.5466 9.31009 28.0921C9.14275 29.8246 9.14931 31.5735 9.04759 33.3257C8.96228 34.8186 8.91306 36.3444 8.8704 37.739C8.8704 37.8702 9.00165 38.0638 9.04103 38.136C9.98931 39.8685 11.9154 40.4427 13.8546 40.8036C16.3615 41.2696 18.934 41.5025 21.5065 41.5025C24.079 41.5025 26.6482 41.2696 29.1584 40.8036C31.0943 40.4427 33.0204 39.8718 33.972 38.136C34.0113 38.0638 34.1426 37.8702 34.1426 37.739C34.0999 36.3444 34.0507 34.8186 33.9654 33.3257C33.867 31.5735 33.8735 29.8213 33.7029 28.0921C33.5552 26.5466 33.3485 21.8315 33.3485 21.8315C33.0467 18.2779 32.9187 17.3821 33.1582 17.0999C33.3321 16.8965 33.8768 17.1557 33.8801 17.1557C34.5593 17.4871 34.9465 18.0121 35.9899 18.8357C36.2984 19.0785 36.7348 19.1769 36.9054 19.0293C37.8767 18.2811 38.779 17.3099 40.0521 15.3477C41.2268 13.5332 42.1456 12.575 42.1915 10.836C42.1849 10.5308 42.1488 10.2257 42.0767 10.1502Z" fill="#C5E1A5"/>
<path d="M16.0038 2.57043C19.7116 3.50231 23.5146 3.51215 27.2224 2.59668C27.1404 3.28903 26.9402 3.95184 26.6449 4.49325C26.1987 5.32012 25.5588 5.85168 24.9058 6.24215C23.0487 7.35122 20.9782 7.46278 19.0258 6.86231C18.5271 6.70809 18.0283 6.50793 17.5723 6.16668C16.8471 5.62528 16.2368 4.7295 15.8529 3.6434C15.7938 3.47278 15.738 3.29231 15.738 3.09872C15.738 2.90512 15.8168 2.70168 15.9382 2.66231" fill="#A0BA7B"/>
<path d="M15.7742 1.46797C15.7939 1.49422 15.8792 1.82234 15.9021 1.85516C16.0432 2.04875 15.889 2.62297 16.099 2.87891C16.4993 3.35797 19.2162 3.84359 21.5 3.84359V2.38344C19.82 2.38344 18.957 2.24562 18.0973 2.07828C17.1785 1.90109 15.9415 1.46141 15.7742 1.46797ZM27.2257 1.46797C27.206 1.49422 27.1207 1.82234 27.0978 1.85516C26.9567 2.04875 27.1109 2.62297 26.9009 2.87891C26.5006 3.35797 23.7837 3.84359 21.5 3.84359V2.38344C23.18 2.38344 24.0429 2.24562 24.9026 2.07828C25.8214 1.90109 27.0584 1.46141 27.2257 1.46797Z" fill="#004D40"/>
<path d="M21.5001 6.81641C17.9465 6.81641 16.1254 3.63688 16.0204 1.82891C15.9909 1.29734 15.7054 1.46469 15.0393 1.63203C14.4848 1.76984 14.429 1.78297 14.5012 2.31781C14.8556 4.95266 17.3428 8.43734 21.5001 8.43734V6.81641ZM21.5001 6.81641C25.0537 6.81641 26.8748 3.63688 26.9798 1.82891C27.0093 1.29734 27.2948 1.46469 27.9609 1.63203C28.5154 1.76984 28.5712 1.78297 28.499 2.31781C28.1446 4.94938 25.6575 8.43406 21.5001 8.43406V6.81641Z" fill="#00897B"/>
</g>
<defs>
<clipPath id="clip0_3056_12451">
<rect width="42" height="42" fill="white" transform="translate(0.5 0.5)"/>
</clipPath>
</defs>
</svg>
