<svg width="18" height="25" viewBox="0 0 18 25" fill="none" xmlns="http://www.w3.org/2000/svg">
<path d="M1.132 7.732C1.21733 5.44933 1.964 3.68933 3.372 2.452C4.78 1.21467 6.68933 0.595999 9.1 0.595999C10.7 0.595999 12.0653 0.873332 13.196 1.428C14.348 1.98267 15.212 2.74 15.788 3.7C16.3853 4.66 16.684 5.73733 16.684 6.932C16.684 8.34 16.332 9.492 15.628 10.388C14.924 11.2627 14.1027 11.86 13.164 12.18V12.308C14.38 12.7133 15.34 13.3853 16.044 14.324C16.748 15.2627 17.1 16.468 17.1 17.94C17.1 19.2627 16.7907 20.436 16.172 21.46C15.5747 22.4627 14.6893 23.252 13.516 23.828C12.364 24.404 10.988 24.692 9.388 24.692C6.828 24.692 4.78 24.0627 3.244 22.804C1.72933 21.5453 0.929333 19.6467 0.844 17.108H6.156C6.17733 18.0467 6.444 18.7933 6.956 19.348C7.468 19.8813 8.21467 20.148 9.196 20.148C10.028 20.148 10.668 19.9133 11.116 19.444C11.5853 18.9533 11.82 18.3133 11.82 17.524C11.82 16.5 11.4893 15.764 10.828 15.316C10.188 14.8467 9.15333 14.612 7.724 14.612H6.7V10.164H7.724C8.812 10.164 9.68667 9.98267 10.348 9.62C11.0307 9.236 11.372 8.564 11.372 7.604C11.372 6.836 11.1587 6.23867 10.732 5.812C10.3053 5.38533 9.71867 5.172 8.972 5.172C8.16133 5.172 7.55333 5.41733 7.148 5.908C6.764 6.39867 6.54 7.00667 6.476 7.732H1.132Z" fill="#D0A353"/>
</svg>
