<svg width="17" height="25" viewBox="0 0 17 25" fill="none" xmlns="http://www.w3.org/2000/svg">
<path d="M0.248 20.116C0.973333 19.54 1.304 19.2733 1.24 19.316C3.33067 17.588 4.97333 16.1693 6.168 15.06C7.384 13.9507 8.408 12.788 9.24 11.572C10.072 10.356 10.488 9.172 10.488 8.02C10.488 7.14533 10.2853 6.46266 9.88 5.972C9.47467 5.48133 8.86667 5.236 8.056 5.236C7.24533 5.236 6.60533 5.54533 6.136 6.164C5.688 6.76133 5.464 7.61467 5.464 8.724H0.184C0.226667 6.91067 0.610667 5.396 1.336 4.18C2.08267 2.964 3.05333 2.068 4.248 1.492C5.464 0.915998 6.808 0.627998 8.28 0.627998C10.8187 0.627998 12.728 1.27866 14.008 2.58C15.3093 3.88133 15.96 5.57733 15.96 7.668C15.96 9.95067 15.1813 12.0733 13.624 14.036C12.0667 15.9773 10.0827 17.876 7.672 19.732H16.312V24.18H0.248V20.116Z" fill="#10A19D"/>
</svg>
