<svg width="43" height="43" viewBox="0 0 43 43" fill="none" xmlns="http://www.w3.org/2000/svg">
<path d="M12.3125 4.4375C12.3125 4.0894 12.4508 3.75556 12.6969 3.50942C12.9431 3.26328 13.2769 3.125 13.625 3.125H29.375C29.7231 3.125 30.0569 3.26328 30.3031 3.50942C30.5492 3.75556 30.6875 4.0894 30.6875 4.4375V10.0182C28.012 8.09142 24.7971 7.05715 21.5 7.0625C18.0718 7.0625 14.8981 8.15844 12.3125 10.0182V4.4375ZM21.5 35.9375C24.9283 35.9375 28.1019 34.8416 30.6875 32.9817V38.5625C30.6875 38.9106 30.5492 39.2444 30.3031 39.4906C30.0569 39.7367 29.7231 39.875 29.375 39.875H13.625C13.2769 39.875 12.9431 39.7367 12.6969 39.4906C12.4508 39.2444 12.3125 38.9106 12.3125 38.5625V32.9817C14.988 34.9085 18.2029 35.9428 21.5 35.9375ZM35.9375 18.875C35.5894 18.875 35.2556 19.0133 35.0094 19.2594C34.7633 19.5056 34.625 19.8394 34.625 20.1875V22.8125C34.625 23.1606 34.7633 23.4944 35.0094 23.7406C35.2556 23.9867 35.5894 24.125 35.9375 24.125H37.9062C38.2543 24.125 38.5882 23.9867 38.8343 23.7406C39.0805 23.4944 39.2188 23.1606 39.2188 22.8125V20.1875C39.2188 19.8394 39.0805 19.5056 38.8343 19.2594C38.5882 19.0133 38.2543 18.875 37.9062 18.875H35.9375Z" fill="#3F5FFF"/>
<path d="M37.25 21.5C37.25 30.1979 30.1979 37.25 21.5 37.25C12.8021 37.25 5.75 30.1979 5.75 21.5C5.75 12.8021 12.8021 5.75 21.5 5.75C30.1979 5.75 37.25 12.8021 37.25 21.5Z" fill="#A4AEEB"/>
<path d="M33.3125 21.5C33.3125 24.6329 32.068 27.6374 29.8527 29.8527C27.6374 32.068 24.6329 33.3125 21.5 33.3125C18.3671 33.3125 15.3626 32.068 13.1473 29.8527C10.932 27.6374 9.6875 24.6329 9.6875 21.5C9.6875 18.3671 10.932 15.3626 13.1473 13.1473C15.3626 10.932 18.3671 9.6875 21.5 9.6875C24.6329 9.6875 27.6374 10.932 29.8527 13.1473C32.068 15.3626 33.3125 18.3671 33.3125 21.5Z" fill="#5235A6"/>
<path d="M21.5 11C21.1519 11 20.8181 11.1383 20.5719 11.3844C20.3258 11.6306 20.1875 11.9644 20.1875 12.3125V20.1875C20.1875 20.4631 20.2728 20.7204 20.4198 20.933L16.1319 25.7118C16.0168 25.8402 15.928 25.9901 15.8708 26.1527C15.8136 26.3154 15.7889 26.4878 15.7983 26.66C15.8077 26.8322 15.8509 27.0009 15.9255 27.1564C16.0001 27.3119 16.1045 27.4512 16.233 27.5664C16.3614 27.6815 16.5112 27.7702 16.6739 27.8275C16.8366 27.8847 17.009 27.9093 17.1812 27.8999C17.3534 27.8906 17.5221 27.8473 17.6776 27.7728C17.8331 27.6982 17.9724 27.5937 18.0875 27.4653L22.4686 22.5789C22.6662 22.3584 22.7834 22.0777 22.8012 21.7823C22.8191 21.4868 22.7366 21.194 22.5671 20.9514C22.727 20.7288 22.8129 20.4616 22.8125 20.1875V12.3125C22.8125 11.9644 22.6742 11.6306 22.4281 11.3844C22.182 11.1383 21.8481 11 21.5 11Z" fill="white"/>
<path d="M24.125 21.5C24.125 22.1962 23.8484 22.8639 23.3562 23.3562C22.8639 23.8484 22.1962 24.125 21.5 24.125C20.8038 24.125 20.1361 23.8484 19.6438 23.3562C19.1516 22.8639 18.875 22.1962 18.875 21.5C18.875 20.8038 19.1516 20.1361 19.6438 19.6438C20.1361 19.1516 20.8038 18.875 21.5 18.875C22.1962 18.875 22.8639 19.1516 23.3562 19.6438C23.8484 20.1361 24.125 20.8038 24.125 21.5Z" fill="#FCD53F"/>
</svg>
