<svg width="43" height="43" viewBox="0 0 43 43" fill="none" xmlns="http://www.w3.org/2000/svg">
<g clip-path="url(#clip0_3056_12103)">
<path d="M38.1261 23.531C37.483 15.0096 31.4881 9.12964 21.5 9.12964C11.5119 9.12964 5.5039 15.3739 4.91327 23.8985C4.56874 28.8664 6.41608 33.2928 10.1337 35.816C12.5816 37.4796 16.0006 38.4017 21.5426 38.4017C27.1798 38.4017 30.4119 37.1843 32.8597 35.5371C36.9383 32.7973 38.4969 28.4267 38.1261 23.531Z" fill="#FFC022"/>
<path d="M18.1269 14.4781C15.6922 8.17813 10.3766 3.89282 8.33235 3.25298C7.56125 3.01016 6.59328 2.98719 6.15688 3.69594C5.05438 5.48423 3.64344 11.2264 6.76391 19.3738L18.1269 14.4781Z" fill="#FFC022"/>
<path d="M12.3519 11.7251C12.8572 11.3019 13.1033 10.8884 12.5487 10.032C11.6891 8.7031 10.1436 7.15107 9.54312 6.67529C8.55874 5.89435 7.79749 5.63185 7.50546 6.88857C6.96406 9.2117 7.00671 12.365 7.58749 14.104C7.79093 14.7176 8.42093 15.0425 8.90656 14.6192L12.3519 11.7251Z" fill="#FFD1D1"/>
<path d="M18.2581 15.2721C18.6289 15.5871 19.3803 15.5412 19.8167 15.0359C20.345 14.4223 20.8963 12.3551 20.5517 9.15918C19.0194 9.21496 17.5691 9.43481 16.2172 9.80559C17.3098 11.5971 17.5723 14.6881 18.2581 15.2721ZM24.7419 15.2721C24.3711 15.5871 23.6197 15.5412 23.1833 15.0359C22.655 14.4223 22.1038 12.3551 22.4483 9.15918C23.9806 9.21496 25.4309 9.43481 26.7828 9.80559C25.6902 11.5971 25.4277 14.6881 24.7419 15.2721Z" fill="#FF9B31"/>
<path d="M26.7172 10.0878C29.3684 6.01575 33.0763 3.27919 34.6152 2.79028C35.3764 2.54747 36.2623 2.58684 36.6955 3.29887C37.7848 5.08716 38.7069 10.5964 36.5577 18.3106L28.7056 14.524L26.7172 10.0878Z" fill="#FFC022"/>
<path d="M32.5086 13.0442C33.3059 13.8415 33.9556 14.3764 34.4248 14.885C34.7366 15.2229 35.3075 15.0687 35.3994 14.6159C36.2033 10.744 35.9473 7.44309 35.3994 6.57684C35.1369 6.1634 34.648 6.05512 34.2017 6.20606C33.4011 6.47184 31.3602 7.99434 29.9197 10.2157C29.7523 10.475 29.8147 10.8228 30.0706 10.9967C30.5891 11.3478 31.4947 12.027 32.5086 13.0442Z" fill="#FFD1D1"/>
<path d="M18.7667 26.0118C18.7503 25.0012 20.2006 24.5188 21.5689 24.4958C22.9405 24.4729 24.417 24.9191 24.4334 25.9297C24.4498 26.9404 22.7206 28.2693 21.6312 28.2693C20.5451 28.2693 18.7864 27.0191 18.7667 26.0118Z" fill="black"/>
<path d="M2.69844 23.8067C2.81001 23.9413 4.14547 23.9216 7.41032 25.4703M1.45157 27.6885C1.45157 27.6885 3.55813 26.9535 7.18063 27.5966M3.39079 30.7827C3.39079 30.7827 4.28985 30.3299 7.54813 30.0444M40.1605 22.6517C40.1605 22.6517 39.0416 22.76 35.5864 24.732M40.6691 26.2545C40.6691 26.2545 38.9989 26.1364 35.4027 26.901M40.0227 29.7195C40.0227 29.7195 38.4378 29.1585 35.173 28.9813" stroke="#9E9E9E" stroke-width="3" stroke-miterlimit="10" stroke-linecap="round"/>
<path d="M32.0295 22.2777C31.918 24.0857 30.7958 25.0799 29.5194 25.0799C28.243 25.0799 27.2094 23.8068 27.2094 22.2383C27.2094 20.6699 28.2856 19.3804 29.7195 19.4591C31.3831 19.5543 32.1214 20.8011 32.0295 22.2777ZM15.5937 22.094C15.8497 23.9347 15.0753 25.0569 13.7923 25.3161C12.5094 25.5754 11.4102 24.7124 11.0919 23.1374C10.7703 21.5591 11.3872 20.0793 12.8441 19.866C14.5339 19.6199 15.3837 20.5879 15.5937 22.094Z" fill="#000200"/>
<path d="M15.2623 28.4432C14.4191 28.9911 15.4166 30.261 16.0006 30.6908C16.5847 31.1207 17.6347 31.6489 19.1736 31.4914C20.9914 31.3077 21.5131 29.9525 21.5131 29.9525C21.5131 29.9525 22.1595 31.4619 24.4072 31.5242C26.6877 31.5866 27.3931 30.3528 27.7016 29.9853C28.01 29.6146 28.3184 28.6597 27.7934 28.2922C27.2684 27.9214 26.9009 28.3841 26.3464 29.1552C25.7919 29.9263 24.6533 30.3561 23.5442 29.8311C22.4352 29.3061 22.3728 27.5211 22.3728 27.5211L20.8011 27.613C20.8011 27.613 20.555 29.1519 19.8462 29.6441C19.1375 30.1363 17.4444 30.261 16.7356 29.1814C16.4239 28.7024 15.9711 27.9805 15.2623 28.4432Z" fill="black"/>
</g>
<defs>
<clipPath id="clip0_3056_12103">
<rect width="42" height="42" fill="white" transform="translate(0.5 0.5)"/>
</clipPath>
</defs>
</svg>
