<svg width="43" height="43" viewBox="0 0 43 43" fill="none" xmlns="http://www.w3.org/2000/svg">
<g clip-path="url(#clip0_3056_12116)">
<path d="M18 32V39C18 39 18 42.5 21.5 42.5C25 42.5 25 39 25 39V32H18Z" fill="#DD2E44"/>
<path d="M18 39L18.0012 39.0432C19.2157 39.0023 20.3532 38.7235 21.0718 37.5428C21.1157 37.4681 21.1783 37.406 21.2535 37.363C21.3287 37.3199 21.4139 37.2972 21.5006 37.2972C21.5873 37.2972 21.6724 37.3199 21.7476 37.363C21.8229 37.406 21.8855 37.4681 21.9293 37.5428C22.648 38.7223 23.7855 39.0023 25 39.0432V32H18V39Z" fill="#BE1931"/>
<path d="M37.7796 25.7222C37.7796 33.0442 31.9463 33.0442 31.9463 33.0442H10.9463C10.9463 33.0442 5.11298 33.0442 5.11298 25.7222C5.11298 17.8775 10.9463 4 21.4463 4C31.9463 4 37.7796 19.0442 37.7796 25.7222Z" fill="#D99E82"/>
<path d="M21.5 23.8334C13.3333 23.8334 9.83331 27.9482 9.83331 31.2942C9.83331 32.996 10.5094 34.6281 11.7127 35.8315C12.9161 37.0348 14.5482 37.7109 16.25 37.7109C18.1225 37.7109 19.799 36.9362 20.9738 34.4827C21.0197 34.3818 21.0937 34.2963 21.1869 34.2364C21.2801 34.1764 21.3886 34.1445 21.4994 34.1445C21.6102 34.1445 21.7187 34.1764 21.8119 34.2364C21.9051 34.2963 21.9791 34.3818 22.025 34.4827C23.1998 36.9362 24.8775 37.7109 26.7488 37.7109C28.4506 37.7109 30.0827 37.0348 31.2861 35.8315C32.4894 34.6281 33.1655 32.996 33.1655 31.2942C33.1666 27.9482 29.6666 23.8334 21.5 23.8334Z" fill="#F4C7B5"/>
<path d="M18 27.2108C16.8333 28.3775 20.3333 31.8775 21.5 31.8775C22.6666 31.8775 26.1666 28.3775 25 27.2108C23.8333 26.0441 19.1666 26.0441 18 27.2108ZM15.6666 22.6666C14.3833 22.6666 13.3333 21.6166 13.3333 20.3333V18C13.3333 16.7166 14.3833 15.6666 15.6666 15.6666C16.95 15.6666 18 16.7166 18 18V20.3333C18 21.6166 16.95 22.6666 15.6666 22.6666ZM27.3333 22.6666C26.05 22.6666 25 21.6166 25 20.3333V18C25 16.7166 26.05 15.6666 27.3333 15.6666C28.6166 15.6666 29.6666 16.7166 29.6666 18V20.3333C29.6666 21.6166 28.6166 22.6666 27.3333 22.6666Z" fill="#292F33"/>
<path d="M18 4.70932C16.7645 3.06549 14.1279 1.52782 3.79936 5.39998C-1.03531 7.21298 1.32603 21.2713 5.09086 22.1825C6.38119 22.1825 10.2545 22.1825 10.2545 11.8552C10.2545 11.5985 10.2522 11.3617 10.2487 11.126C12.575 7.84765 15.0834 6.16649 18 4.70932ZM39.2007 5.39998C28.8722 1.52782 26.2355 3.06549 25 4.70932C27.9167 6.16765 30.425 7.84882 32.7514 11.1272C32.7479 11.3617 32.7455 11.5985 32.7455 11.8563C32.7455 22.1837 36.6177 22.1837 37.9092 22.1837C41.674 21.2713 44.0354 7.21298 39.2007 5.39998Z" fill="#662113"/>
<path d="M27.9166 30.8333C28.2388 30.8333 28.5 30.5721 28.5 30.25C28.5 29.9278 28.2388 29.6666 27.9166 29.6666C27.5945 29.6666 27.3333 29.9278 27.3333 30.25C27.3333 30.5721 27.5945 30.8333 27.9166 30.8333Z" fill="#D99E82"/>
<path d="M13.9166 30.8333C14.2388 30.8333 14.5 30.5721 14.5 30.25C14.5 29.9278 14.2388 29.6666 13.9166 29.6666C13.5945 29.6666 13.3333 29.9278 13.3333 30.25C13.3333 30.5721 13.5945 30.8333 13.9166 30.8333Z" fill="#D99E82"/>
<path d="M30.25 33.1667C30.5722 33.1667 30.8334 32.9055 30.8334 32.5833C30.8334 32.2612 30.5722 32 30.25 32C29.9279 32 29.6667 32.2612 29.6667 32.5833C29.6667 32.9055 29.9279 33.1667 30.25 33.1667Z" fill="#D99E82"/>
<path d="M12.75 33.1667C13.0722 33.1667 13.3334 32.9055 13.3334 32.5833C13.3334 32.2612 13.0722 32 12.75 32C12.4279 32 12.1667 32.2612 12.1667 32.5833C12.1667 32.9055 12.4279 33.1667 12.75 33.1667Z" fill="#D99E82"/>
<path d="M27.3334 34.3333C27.9777 34.3333 28.5 33.811 28.5 33.1667C28.5 32.5223 27.9777 32 27.3334 32C26.689 32 26.1667 32.5223 26.1667 33.1667C26.1667 33.811 26.689 34.3333 27.3334 34.3333Z" fill="#D99E82"/>
<path d="M15.6667 34.3333C16.311 34.3333 16.8333 33.811 16.8333 33.1667C16.8333 32.5223 16.311 32 15.6667 32C15.0223 32 14.5 32.5223 14.5 33.1667C14.5 33.811 15.0223 34.3333 15.6667 34.3333Z" fill="#D99E82"/>
<path d="M12.0302 8.93732C11.728 8.15215 11.2905 7.30749 10.6582 6.67515C10.5499 6.56683 10.4213 6.48091 10.2798 6.42229C10.1382 6.36367 9.98655 6.3335 9.83336 6.3335C9.68017 6.3335 9.52849 6.36367 9.38696 6.42229C9.24544 6.48091 9.11685 6.56683 9.00853 6.67515C8.90021 6.78347 8.81429 6.91206 8.75566 7.05359C8.69704 7.19512 8.66687 7.3468 8.66687 7.49999C8.66687 7.65317 8.69704 7.80486 8.75566 7.94638C8.81429 8.08791 8.90021 8.2165 9.00853 8.32482C9.67353 8.98982 10.2522 10.5812 10.2545 11.0618C10.4237 10.5905 11.2334 9.72015 12.0302 8.93732ZM30.95 8.93732C31.2522 8.15332 31.6897 7.30749 32.322 6.67515C32.4303 6.56683 32.5589 6.48091 32.7005 6.42229C32.842 6.36367 32.9937 6.3335 33.1469 6.3335C33.3 6.3335 33.4517 6.36367 33.5933 6.42229C33.7348 6.48091 33.8634 6.56683 33.9717 6.67515C34.08 6.78347 34.1659 6.91206 34.2246 7.05359C34.2832 7.19512 34.3134 7.3468 34.3134 7.49999C34.3134 7.65317 34.2832 7.80486 34.2246 7.94638C34.1659 8.08791 34.08 8.2165 33.9717 8.32482C33.3067 8.98982 32.728 10.5812 32.7257 11.0618C32.5565 10.5905 31.7469 9.72015 30.95 8.93732Z" fill="#380F09"/>
</g>
<defs>
<clipPath id="clip0_3056_12116">
<rect width="42" height="42" fill="white" transform="translate(0.5 0.5)"/>
</clipPath>
</defs>
</svg>
