<svg width="43" height="43" viewBox="0 0 43 43" fill="none" xmlns="http://www.w3.org/2000/svg">
<g clip-path="url(#clip0_3056_12132)">
<path d="M15.375 21.2083C16.8053 23.7692 17.5403 19.6205 26.239 18.1458C34.9377 16.6712 42.2562 23.3422 42.4078 24.461C42.5618 25.5787 37.2197 35.5 31.3688 35.5H13.0417C8.20816 35.5 4.84932 27.072 8.37499 22.1557C8.37499 22.1557 13.625 18.0723 15.375 21.2083Z" fill="#D99E82"/>
<path d="M15.676 21.6587C9.8567 29.7519 8.63053 35.5 13.0417 35.5C8.2082 35.5 5.36736 28.2807 7.82903 22.6305C8.3692 21.3892 9.88003 19.7232 9.88003 19.7232L14.7555 19.7139C14.9445 20.0872 15.4544 21.3064 15.676 21.6587Z" fill="#C1694F"/>
<path d="M23.9057 27.0417C31.6897 23.9127 42.2562 23.3422 42.4079 24.461C42.5619 25.5787 37.2197 35.5 31.3689 35.5H14.2819C9.44835 35.5 15.7192 30.3328 23.9057 27.0417Z" fill="#E1E8ED"/>
<path d="M30.0855 25.1459C37.0855 23.6152 42.2982 23.6502 42.409 24.461C42.5012 25.1354 40.5902 29.0192 37.7738 31.9907C40.3452 28.7194 39.4305 24.8589 30.0855 25.1459Z" fill="#292F33"/>
<path d="M8.81249 7.64578C10.6348 1.88478 20.9925 2.81228 20.5515 8.44844C20.1105 14.0823 13.023 17.6173 15.676 21.6586C13.8257 23.2686 9.82399 22.7238 7.82782 22.6304C8.5161 21.2972 9.22082 19.9726 9.94182 18.6568C13.3438 12.5493 7.45565 11.9321 8.81249 7.64578Z" fill="#3E721D"/>
<path d="M2.7085 11.0525C3.37117 9.76918 3.349 11.1762 6.61917 11.2182C8.43217 11.2427 8.326 10.5649 8.5605 9.32702C8.60834 9.06685 9.46584 11.2124 10.965 11.4352C15.1113 12.0547 13.1572 13.6985 10.965 14.073C9.91384 14.2527 8.62 14.444 6.37067 14.2539C3.43184 14.0065 1.97467 12.4712 2.7085 11.0525Z" fill="#FFCC4D"/>
<path d="M15.0856 19.8959C15.137 20.625 15.676 21.6587 15.676 21.6587C14.4906 23.3784 9.09248 25.1785 7.09631 25.077C7.22284 24.231 7.46915 23.4072 7.82781 22.6305C9.97915 22.081 13.2656 21.381 15.0856 19.8959Z" fill="#F5F8FA"/>
<path d="M14.1593 7.67618C14.165 7.8782 14.13 8.07929 14.0566 8.26757C13.9832 8.45585 13.8727 8.6275 13.7318 8.77237C13.5909 8.91724 13.4224 9.0324 13.2362 9.11103C13.0501 9.18966 12.85 9.23018 12.6479 9.23018C12.4458 9.23018 12.2458 9.18966 12.0596 9.11103C11.8735 9.0324 11.7049 8.91724 11.564 8.77237C11.4231 8.6275 11.3127 8.45585 11.2393 8.26757C11.1658 8.07929 11.1309 7.8782 11.1365 7.67618C11.1474 7.2826 11.3115 6.9088 11.5937 6.63429C11.876 6.35977 12.2542 6.20618 12.6479 6.20618C13.0417 6.20618 13.4199 6.35977 13.7021 6.63429C13.9844 6.9088 14.1484 7.2826 14.1593 7.67618Z" fill="#292F33"/>
</g>
<defs>
<clipPath id="clip0_3056_12132">
<rect width="42" height="42" fill="white" transform="translate(0.5 0.5)"/>
</clipPath>
</defs>
</svg>
