<svg width="43" height="43" viewBox="0 0 43 43" fill="none" xmlns="http://www.w3.org/2000/svg">
<g clip-path="url(#clip0_3056_12190)">
<path d="M40.6952 18.6686C39.6872 10.1519 34.0113 6.48039 24.4435 6.48039C23.9873 6.48039 23.5533 6.50022 23.1147 6.51656C23.0995 6.50489 23.089 6.49206 23.0738 6.48039C17.5975 2.37256 5.27285 3.74222 2.53585 7.85006C-1.26165 13.5469 1.16618 33.8667 2.53585 36.6037C3.90435 39.3454 8.01218 40.7116 9.38185 39.3454C10.7515 37.9734 9.38185 37.9734 8.01335 35.2376C7.02168 33.2531 7.46968 28.4021 8.31085 25.3547C8.34351 25.5507 8.39018 25.7304 8.42751 25.9217C8.88251 29.2712 10.7527 34.5691 10.7527 37.2897C10.7527 41.4477 13.205 42.0812 16.229 42.0812C19.2542 42.0812 21.7065 41.4477 21.7065 37.2897C21.7065 37.0097 21.6972 36.7496 21.6925 36.4789C22.5757 36.5536 23.4833 36.6037 24.4447 36.6037C25.0245 36.6037 25.5845 36.5851 26.134 36.5582C26.1293 36.8021 26.1188 37.0366 26.1188 37.2897C26.1188 41.4477 28.5723 42.0812 31.5952 42.0812C34.6203 42.0812 37.0727 41.4477 37.0727 37.2897C37.0727 35.1886 38.4633 31.8939 39.4515 29.1441C39.637 28.7311 39.791 28.2901 39.9415 27.8409C40.0792 29.3657 40.1667 30.9979 40.1667 32.7479C40.1667 33.0573 40.2896 33.3541 40.5084 33.5728C40.7272 33.7916 41.0239 33.9146 41.3333 33.9146C41.6428 33.9146 41.9395 33.7916 42.1583 33.5728C42.3771 33.3541 42.5 33.0573 42.5 32.7479C42.5 26.7361 41.6005 21.9586 40.6952 18.6686Z" fill="#99AAB5"/>
<path d="M23.075 6.48035C23.075 6.48035 27.3333 12.9145 23.8333 18.7478C20.3333 24.5812 14.689 24.5812 11 24.5812C8.66665 24.5812 9.83332 26.9145 11 26.9145C12.6496 26.9145 20.7941 28.3273 25 19.9145C28.5 12.9145 23.075 6.48035 23.075 6.48035Z" fill="#66757F"/>
<path d="M8.08331 18.7478C9.04981 18.7478 9.83331 17.9643 9.83331 16.9978C9.83331 16.0313 9.04981 15.2478 8.08331 15.2478C7.11681 15.2478 6.33331 16.0313 6.33331 16.9978C6.33331 17.9643 7.11681 18.7478 8.08331 18.7478Z" fill="#292F33"/>
</g>
<defs>
<clipPath id="clip0_3056_12190">
<rect width="42" height="42" fill="white" transform="translate(0.5 0.5)"/>
</clipPath>
</defs>
</svg>
