<svg width="43" height="43" viewBox="0 0 43 43" fill="none" xmlns="http://www.w3.org/2000/svg">
<path d="M37.9719 15.9875C30.4906 4.9625 12.5094 4.9625 5.02812 15.9875C2.40312 19.8594 1.74687 24.1906 1.8125 25.1094C2.00937 27.7344 7.91562 38.6281 21.5 38.5625C35.0187 38.4969 40.925 27.8 41.1875 25.1094C41.2531 24.1906 40.5969 19.8594 37.9719 15.9875Z" fill="#83BF4F"/>
<path d="M1.8125 25.1094C2.00938 27.7344 6.14375 39.2844 21.5 39.2188C36.7906 39.1531 40.925 27.8 41.1875 25.1094C41.1875 25.1094 33.2469 31.6719 21.5656 31.6719C9.75312 31.6719 1.8125 25.1094 1.8125 25.1094Z" fill="#FFDF99"/>
<path d="M17.7594 21.5C16.8406 21.5 14.9375 24.125 14.9375 24.125C14.9375 24.125 16.8406 23.2719 17.7594 23.2719C18.6781 23.2719 20.5813 24.125 20.5813 24.125C20.5813 24.125 18.6781 21.5 17.7594 21.5ZM25.2406 21.5C24.3219 21.5 22.4188 24.125 22.4188 24.125C22.4188 24.125 24.3219 23.2719 25.2406 23.2719C26.1594 23.2719 28.0625 24.125 28.0625 24.125C28.0625 24.125 26.1594 21.5 25.2406 21.5Z" fill="#3E4347"/>
<path d="M33.3125 19.5312C37.6617 19.5312 41.1875 16.0055 41.1875 11.6562C41.1875 7.30701 37.6617 3.78125 33.3125 3.78125C28.9633 3.78125 25.4375 7.30701 25.4375 11.6562C25.4375 16.0055 28.9633 19.5312 33.3125 19.5312Z" fill="#83BF4F"/>
<path d="M33.3125 16.9062C36.212 16.9062 38.5625 14.5557 38.5625 11.6562C38.5625 8.75675 36.212 6.40625 33.3125 6.40625C30.413 6.40625 28.0625 8.75675 28.0625 11.6562C28.0625 14.5557 30.413 16.9062 33.3125 16.9062Z" fill="#FFE655"/>
<path d="M35.9375 11.7875C35.9375 13.2312 34.7562 14.4125 33.3125 14.4125C31.8687 14.4125 30.6875 13.2312 30.6875 11.7875C30.6875 10.3437 31.8687 9.16248 33.3125 9.16248C34.7562 9.16248 35.9375 10.3437 35.9375 11.7875Z" fill="#3E4347"/>
<path d="M17.5625 11.6562C17.5625 15.9875 14.0188 19.5312 9.6875 19.5312C5.35625 19.5312 1.8125 15.9875 1.8125 11.6562C1.8125 7.325 5.35625 3.78125 9.6875 3.78125C14.0188 3.78125 17.5625 7.325 17.5625 11.6562Z" fill="#83BF4F"/>
<path d="M9.6875 16.9062C12.587 16.9062 14.9375 14.5557 14.9375 11.6562C14.9375 8.75675 12.587 6.40625 9.6875 6.40625C6.788 6.40625 4.4375 8.75675 4.4375 11.6562C4.4375 14.5557 6.788 16.9062 9.6875 16.9062Z" fill="#FFE655"/>
<path d="M12.3125 11.7875C12.3125 13.2312 11.1312 14.4125 9.6875 14.4125C8.24375 14.4125 7.0625 13.2312 7.0625 11.7875C7.0625 10.3437 8.24375 9.16248 9.6875 9.16248C11.1312 9.16248 12.3125 10.3437 12.3125 11.7875Z" fill="#3E4347"/>
<path d="M9.68749 11.6562C13.2031 11.6562 16.0531 10.0696 16.0531 8.11248C16.0531 6.15532 13.2031 4.56873 9.68749 4.56873C6.17186 4.56873 3.32187 6.15532 3.32187 8.11248C3.32187 10.0696 6.17186 11.6562 9.68749 11.6562Z" fill="#83BF4F"/>
<path d="M33.3125 11.6562C36.8281 11.6562 39.6781 10.0696 39.6781 8.11248C39.6781 6.15532 36.8281 4.56873 33.3125 4.56873C29.7969 4.56873 26.9469 6.15532 26.9469 8.11248C26.9469 10.0696 29.7969 11.6562 33.3125 11.6562Z" fill="#83BF4F"/>
</svg>
