<svg width="43" height="43" viewBox="0 0 43 43" fill="none" xmlns="http://www.w3.org/2000/svg">
<path d="M17.2639 8.64082C17.2639 8.64082 13.6611 7.81723 10.7342 9.0477C7.9911 10.2027 7.60063 12.4044 7.84673 13.6677C8.09282 14.931 8.88688 16.0368 10.4783 16.1385C11.5644 16.2074 11.9319 15.5839 11.7809 15.3214C11.7022 15.1869 10.5505 14.4585 11.0788 13.5496C11.5217 12.7916 13.0147 13.4905 13.4413 14.15C13.8416 14.7669 14.3666 15.6594 14.3666 15.6594C14.3666 15.6594 18.8947 13.7202 18.7995 13.5955C18.7044 13.4708 17.2639 8.64082 17.2639 8.64082Z" fill="#E74B8C"/>
<path d="M17.0474 11.1673L15.6299 9.90405L13.3067 12.7226L14.6291 14.7833L18.0022 13.3067L17.0474 11.1673Z" fill="#FCD817"/>
<path d="M9.96641 12.3978C9.78922 12.9195 9.94672 13.7562 9.29047 13.8284C8.61454 13.9039 8.12563 13.0868 8.53579 11.7809C8.89016 10.6554 10.288 9.98607 10.8294 10.9048C11.2264 11.5808 10.288 11.4429 9.96641 12.3978Z" fill="#EF7FAD"/>
<path d="M13.2444 7.39392C13.1525 7.54814 11.5512 9.90408 11.5512 9.90408L13.0901 12.3519L14.9375 11.4135L15.3214 9.5497L13.2444 7.39392Z" fill="#BBD047"/>
<path d="M11.4889 5.59253L10.0878 7.36112L11.4594 9.74987L12.7358 9.11659L13.3231 7.43987L11.4889 5.59253Z" fill="#62A5A8"/>
<path d="M9.57921 3.66638L8.61124 4.68357L10.0419 7.25607L10.8589 6.6556L11.4265 5.51373L9.57921 3.66638Z" fill="#38B2E8"/>
<path d="M7.73189 2.38999C7.40048 2.7214 8.60798 4.67046 8.60798 4.67046C8.60798 4.67046 9.50048 3.65328 9.50048 3.59421C9.50376 3.52859 8.1158 2.00281 7.73189 2.38999Z" fill="#A37BCB"/>
<path d="M15.3247 9.425C15.7709 9.30032 16.0794 10.1338 15.6791 10.9803C15.3214 11.735 14.803 12.3191 14.1073 12.7063C13.7628 12.8966 13.2444 13.1066 13.0442 12.7358C12.8276 12.3388 13.0737 12.1353 13.5069 11.8269C13.9039 11.5414 14.3075 11.1181 14.5372 10.7178C14.7669 10.3175 14.99 9.51688 15.3247 9.425ZM13.1984 7.19375C13.5594 7.08875 13.8284 7.81063 13.5036 8.53578C13.2148 9.18219 12.8572 9.69735 12.2994 10.0288C12.0237 10.1928 11.6037 10.3733 11.443 10.055C11.2691 9.71375 11.4331 9.47422 11.7809 9.20844C12.1025 8.96563 12.3814 8.51938 12.5651 8.17813C12.7522 7.83688 12.9294 7.2725 13.1984 7.19375ZM11.3576 5.225C11.6562 5.30703 11.8662 5.83532 11.5972 6.37672C11.3576 6.85907 11.1247 7.115 10.6587 7.3611C10.4258 7.4825 10.1567 7.63672 10.0091 7.45297C9.82202 7.22328 9.75312 6.89516 10.0451 6.69828C10.3142 6.51782 10.6161 6.29797 10.8162 5.91407C10.9508 5.64828 11.082 5.14953 11.3576 5.225ZM9.38234 3.40063C9.58577 3.35141 9.83515 3.77797 9.65468 4.11922C9.4939 4.42438 9.28718 4.61797 8.97218 4.77547C8.81796 4.85422 8.64406 4.90016 8.55218 4.7525C8.45374 4.59172 8.36187 4.48016 8.55874 4.35547C8.73921 4.24063 8.99187 3.98141 9.09687 3.81735C9.20187 3.65657 9.2314 3.44 9.38234 3.40063Z" fill="#A364B2"/>
<path d="M16.9981 39.8422C16.6667 39.6224 18.3106 33.9065 18.957 32.384C19.6034 30.8582 19.9873 29.5818 19.9873 29.5818C19.9873 29.5818 16.8931 30.0576 14.8916 30.074C13.3658 30.0871 11.1509 29.8902 11.1509 29.8902L6.71469 24.0693C6.71469 24.0693 7.96157 21.8052 8.69985 20.8832C9.43813 19.9579 11.6563 16.9555 12.7653 15.8957C13.8744 14.8326 15.3969 13.7235 16.0466 13.4479C16.693 13.1722 17.1097 12.9852 17.1097 12.9852C17.1097 12.9852 16.7848 11.0001 16.9259 9.75318C17.0638 8.50631 18.8323 5.0249 19.1113 5.0249C19.482 5.0249 21.0833 7.39725 21.4048 9.01162C21.7297 10.626 25.2406 15.1541 25.2406 15.1541L35.4945 34.5562C35.4945 34.5562 35.6783 39.7307 35.6323 39.9144C35.5864 40.0982 29.9033 40.8857 26.4383 40.8857C22.9733 40.8857 17.277 40.0293 16.9981 39.8422Z" fill="#DFDFDF"/>
<path d="M23.9839 23.2654C23.6426 23.249 22.6681 25.2013 21.6903 26.6385C20.8667 27.846 19.902 28.4268 18.8717 28.9649C17.8086 29.5194 16.2303 29.8804 16.7684 29.9886C17.3066 30.0969 20.5189 29.7393 21.5951 29.2865C22.2022 29.0338 23.0487 27.7836 23.4819 26.9535C23.915 26.1233 24.6926 23.2949 23.9839 23.2654Z" fill="#B0B0B0"/>
<path d="M18.1498 19.5116C18.2187 20.5288 17.848 21.4048 16.7881 21.4738C16.04 21.523 15.4789 20.765 15.3837 19.8397C15.3083 19.1178 15.6101 18.1859 16.5978 18.0481C17.5264 17.9169 18.0842 18.583 18.1498 19.5116Z" fill="#303030"/>
<path d="M21.3589 9.02465C21.3589 9.02465 24.1447 10.2781 25.2177 10.0418C26.0478 9.85809 26.3366 9.25762 26.3727 8.65715C26.4186 7.84997 25.7033 7.94184 25.5884 7.617C25.4736 7.29215 26.3267 6.71465 27.3209 6.90168C28.3152 7.08543 29.4997 8.00418 29.4767 9.48075C29.4538 10.9573 28.5449 11.7514 28.5449 11.7514C28.5449 11.7514 30.9402 11.6365 32.5414 13.2772C34.3428 15.1245 33.9491 18.1498 33.9491 18.1498C33.9491 18.1498 34.8974 18.2876 35.2419 17.802C35.5864 17.3164 35.4945 16.7618 35.2649 16.4403C35.0352 16.1154 35.7045 15.9087 36.1409 16.0925C36.5806 16.2762 38.6084 17.7298 37.5059 20.0759C36.8234 21.5328 35.1008 21.7526 35.1008 21.7526C35.1008 21.7526 37.9883 23.029 39.0449 26.2479C40.2064 29.7917 38.9366 32.1476 37.6208 34.4084C36.305 36.6725 36.4231 36.807 36.3509 37.5486C36.2591 38.4739 35.9802 39.6289 35.6356 39.6026C35.2878 39.5797 34.8744 38.6084 34.6644 37.5486C34.4577 36.4854 33.1616 35.4453 32.1247 34.5003C31.0878 33.5553 28.4825 31.0582 27.7344 28.7745C26.7861 25.887 27.2717 21.8675 27.2717 21.8675C27.2717 21.8675 24.4072 20.5517 22.8125 17.9168C21.0866 15.0654 21.2408 12.9753 21.2408 12.9753C21.2408 12.9753 21.6805 11.7284 21.7034 10.872C21.7264 10.0156 21.3589 9.02465 21.3589 9.02465Z" fill="#E74B8C"/>
<path d="M25.8641 11.0132C26.0642 11.8729 27.6425 11.4299 27.9444 9.97303C28.2462 8.51615 27.4128 7.86975 26.9272 8.14865C26.4416 8.42428 27.042 9.16584 26.7205 9.78928C26.3989 10.4127 25.7 10.3176 25.8641 11.0132ZM33.8703 19.4001C33.5947 20.2401 35.0351 20.5321 36.1639 19.6265C37.3222 18.6946 36.9941 17.3165 36.3247 17.3854C35.4748 17.474 35.8358 18.4354 35.2353 18.7996C34.6348 19.1671 34.0934 18.7274 33.8703 19.4001ZM24.0397 12.096C22.9306 11.9582 22.7764 14.1205 23.4622 15.6069C24.5483 17.9629 26.3497 17.5232 27.5966 19.049C28.5612 20.2302 28.3348 21.7527 29.3291 21.7297C30.3233 21.7068 30.5759 20.0432 29.0534 18.0121C27.5276 15.981 25.6114 15.981 25.0339 14.7571C24.4531 13.5299 25.3325 12.2601 24.0397 12.096ZM29.6736 22.5599C28.4037 23.2851 29.3094 24.929 29.9984 25.0766C30.9697 25.2833 31.4061 24.6369 31.5242 23.9905C31.6423 23.3441 30.9664 21.8216 29.6736 22.5599ZM30.6448 26.4646C29.6408 26.6287 29.7523 27.636 29.9295 28.6597C30.2314 30.4152 31.1534 32.1018 32.2395 33.0008C33.2895 33.8704 33.8801 33.6013 34.1787 33.2535C34.5331 32.8466 34.2017 32.1215 33.785 31.6358C33.3683 31.1502 32.8301 30.5268 32.4692 29.9952C32.0295 29.3488 31.977 28.5088 31.8917 28.033C31.7309 27.111 31.6358 26.3005 30.6448 26.4646Z" fill="#F081AF"/>
<path d="M4.22093 31.1075C5.23812 33.0271 7.61703 32.5382 7.61703 32.5382C7.61703 32.5382 9.85812 31.521 9.85812 31.4521C9.85812 31.3832 11.3347 29.5129 11.3347 29.5129C11.3347 29.5129 10.9409 27.8263 9.41843 25.979C8.21421 24.5221 6.94765 23.8068 6.94765 23.8068L4.175 26.3005C4.175 26.3005 2.79031 28.4038 4.22093 31.1075Z" fill="white"/>
<path d="M6.0453 26.0478C5.88452 26.6482 6.41608 26.8779 6.59983 27.0879C6.78358 27.2946 6.34718 28.174 6.97062 28.4037C7.59405 28.6334 8.30937 27.5965 8.07968 26.6942C7.8303 25.7295 6.28812 25.1487 6.0453 26.0478Z" fill="#90909B"/>
<path d="M7.22329 23.7313C7.06251 23.4229 6.70813 23.5771 6.36032 23.9019C6.01251 24.2268 4.05032 25.6574 3.49579 26.9666C3.08891 27.928 2.79688 29.7819 3.85344 31.2913C4.94938 32.8597 5.93376 33.0107 7.43329 32.886C9.62844 32.7022 10.8425 30.9008 11.0755 30.599C11.3084 30.2971 11.8138 29.6441 11.5381 29.3226C11.2625 28.9977 11.0033 29.4669 10.6456 29.9526C10.183 30.576 9.81548 30.9533 9.35282 31.3701C9.08376 31.6129 8.31266 32.0329 7.9911 32.1018C7.66626 32.1707 8.63094 31.6162 9.00829 30.9697C9.26423 30.5333 9.79251 29.4932 9.79251 29.4932L8.89016 29.2176C8.89016 29.2176 8.45048 30.1724 8.10594 30.5891C7.75813 31.0058 6.67532 31.9443 6.35048 32.0132C6.02563 32.0821 4.80173 31.5374 4.25704 30.5596C3.73204 29.6212 3.65001 28.2726 4.18157 27.2094C4.71313 26.1463 6.05188 25.0602 6.4686 24.7387C6.87876 24.4072 7.43001 24.1251 7.22329 23.7313Z" fill="#AFAFAF"/>
<path d="M9.85811 28.5974C9.60874 28.3808 9.1953 28.535 8.98202 28.8271C8.76546 29.1191 8.68999 29.4571 9.11983 29.69C9.54967 29.9197 9.82858 29.6736 10.0287 29.398C10.2256 29.1191 10.0878 28.7975 9.85811 28.5974Z" fill="#90909B"/>
</svg>
