<svg width="79" height="44" viewBox="0 0 79 44" fill="none" xmlns="http://www.w3.org/2000/svg">
<rect width="79" height="44" rx="22" fill="url(#paint0_linear_3056_12079)"/>
<g clip-path="url(#clip0_3056_12079)">
<path d="M29 36C36.3024 36 42.2222 30.0802 42.2222 22.7778C42.2222 15.4753 36.3024 9.55554 29 9.55554C21.6976 9.55554 15.7778 15.4753 15.7778 22.7778C15.7778 30.0802 21.6976 36 29 36Z" fill="#F4900C"/>
<path d="M29 34.4444C36.3024 34.4444 42.2222 28.5247 42.2222 21.2222C42.2222 13.9198 36.3024 8 29 8C21.6976 8 15.7778 13.9198 15.7778 21.2222C15.7778 28.5247 21.6976 34.4444 29 34.4444Z" fill="#FFCC4D"/>
<path d="M29 32.8889C35.0137 32.8889 39.8889 28.0137 39.8889 22C39.8889 15.9862 35.0137 11.1111 29 11.1111C22.9862 11.1111 18.1111 15.9862 18.1111 22C18.1111 28.0137 22.9862 32.8889 29 32.8889Z" fill="#FFE8B6"/>
<path d="M29 32.1112C35.0137 32.1112 39.8889 27.236 39.8889 21.2223C39.8889 15.2085 35.0137 10.3334 29 10.3334C22.9862 10.3334 18.1111 15.2085 18.1111 21.2223C18.1111 27.236 22.9862 32.1112 29 32.1112Z" fill="#FFAC33"/>
<path d="M22.4224 16.4435C22.4224 16.0196 22.8385 15.8501 22.8385 15.8501L28.9658 12.9723L35.1515 15.8501C35.1515 15.8501 35.5777 15.945 35.5777 16.4466V16.9452H22.4224V16.4435Z" fill="#FFE8B6"/>
<path d="M35.167 17.9836C35.167 17.5294 34.7742 17.1615 34.2904 17.1615H23.6559C23.1713 17.1615 22.8338 17.5294 22.8338 17.9836C22.8338 18.2924 22.9924 18.5584 23.2452 18.6992V19.2172H24.8894V18.8057H26.5337V19.2172H28.1779V18.8057H29.8221V19.2172H31.4663V18.8057H33.1106V19.2172H34.7556V18.6782C35.0021 18.5319 35.167 18.2761 35.167 17.9836ZM36.3998 26.6667C36.3998 26.8303 36.3348 26.9872 36.2191 27.1028C36.1035 27.2185 35.9466 27.2835 35.783 27.2835H22.217C22.0534 27.2835 21.8965 27.2185 21.7809 27.1028C21.6652 26.9872 21.6002 26.8303 21.6002 26.6667C21.6002 26.5031 21.6652 26.3463 21.7809 26.2306C21.8965 26.1149 22.0534 26.0499 22.217 26.0499H35.7838C36.1237 26.0499 36.3998 26.3261 36.3998 26.6667Z" fill="#F4900C"/>
<path d="M35.5777 17.4888C35.5777 17.598 35.5343 17.7026 35.4572 17.7798C35.38 17.8569 35.2754 17.9003 35.1662 17.9003H22.833C22.7283 17.8938 22.6299 17.8477 22.558 17.7712C22.4861 17.6948 22.4461 17.5938 22.4461 17.4888C22.4461 17.3839 22.4861 17.2829 22.558 17.2064C22.6299 17.13 22.7283 17.0838 22.833 17.0774L35.1662 17.0797C35.2201 17.0795 35.2735 17.0899 35.3234 17.1104C35.3733 17.1309 35.4186 17.161 35.4568 17.199C35.495 17.237 35.5254 17.2821 35.5461 17.3319C35.5669 17.3816 35.5776 17.4349 35.5777 17.4888ZM24.478 17.9664H33.5228V18.8888H24.478V17.9664Z" fill="#F4900C"/>
<path d="M24.8887 24.2004C24.8887 24.6546 24.6429 25.0225 24.3403 25.0225H23.792C23.4894 25.0225 23.2437 24.6546 23.2437 24.2004V17.9673C23.2437 17.513 23.4894 17.1451 23.792 17.1451H24.3403C24.6429 17.1451 24.8887 17.513 24.8887 17.9673V24.2004ZM34.7555 24.2004C34.7555 24.6546 34.5105 25.0225 34.2072 25.0225H33.6589C33.3563 25.0225 33.1105 24.6546 33.1105 24.2004V17.9673C33.1105 17.513 33.3555 17.1451 33.6589 17.1451H34.2072C34.5098 17.1451 34.7555 17.513 34.7555 17.9673V24.2004ZM28.1779 24.2004C28.1779 24.6546 27.9321 25.0225 27.6295 25.0225H27.0812C26.7787 25.0225 26.5329 24.6546 26.5329 24.2004V17.9673C26.5329 17.513 26.7787 17.1451 27.0812 17.1451H27.6295C27.9321 17.1451 28.1779 17.513 28.1779 17.9673V24.2004ZM31.4663 24.2004C31.4663 24.6546 31.2205 25.0225 30.918 25.0225H30.3704C30.0679 25.0225 29.8221 24.6546 29.8221 24.2004V17.9673C29.8221 17.513 30.0679 17.1451 30.3704 17.1451H30.918C31.2205 17.1451 31.4663 17.513 31.4663 17.9673V24.2004Z" fill="#FFD983"/>
<path d="M35.167 24.6111C35.167 25.0653 34.7991 25.4332 34.3449 25.4332H23.6559C23.4379 25.4332 23.2288 25.3465 23.0746 25.1924C22.9204 25.0382 22.8338 24.8291 22.8338 24.6111C22.8338 24.393 22.9204 24.1839 23.0746 24.0297C23.2288 23.8756 23.4379 23.7889 23.6559 23.7889H34.3449C34.7984 23.7889 35.167 24.1568 35.167 24.6111Z" fill="#FFCC4D"/>
<path d="M35.9891 25.4331C35.9891 25.8873 35.6212 26.2552 35.167 26.2552H22.833C22.6149 26.2552 22.4058 26.1686 22.2517 26.0144C22.0975 25.8602 22.0109 25.6511 22.0109 25.4331C22.0109 25.215 22.0975 25.0059 22.2517 24.8518C22.4058 24.6976 22.6149 24.611 22.833 24.611H35.1662C35.6204 24.611 35.9891 24.9789 35.9891 25.4331Z" fill="#FFD983"/>
<path d="M36.3998 26.0499C36.3998 26.2135 36.3348 26.3703 36.2191 26.486C36.1035 26.6017 35.9466 26.6667 35.783 26.6667H22.217C22.136 26.6667 22.0558 26.6507 21.981 26.6197C21.9061 26.5887 21.8381 26.5433 21.7809 26.486C21.7236 26.4287 21.6782 26.3607 21.6472 26.2859C21.6162 26.2111 21.6002 26.1309 21.6002 26.0499C21.6002 25.9689 21.6162 25.8887 21.6472 25.8139C21.6782 25.739 21.7236 25.671 21.7809 25.6138C21.8381 25.5565 21.9061 25.5111 21.981 25.4801C22.0558 25.4491 22.136 25.4331 22.217 25.4331H35.7838C36.1237 25.4331 36.3998 25.7092 36.3998 26.0499Z" fill="#FFD983"/>
<path d="M35.167 17.5558C35.167 17.1015 34.7742 16.7336 34.2905 16.7336H23.6559C23.1714 16.7336 22.8338 17.1015 22.8338 17.5558C22.8338 17.8645 22.9925 18.1305 23.2452 18.2713V18.7893H24.8895V18.3779H26.5337V18.7893H28.1779V18.3779H29.8221V18.7893H31.4664V18.3779H33.1106V18.7893H34.7556V18.2503C35.0021 18.1041 35.167 17.8482 35.167 17.5558Z" fill="#FFCC4D"/>
<path d="M22.4224 16.9157C22.4224 16.4918 22.8385 16.3222 22.8385 16.3222L28.9658 13.4445L35.1515 16.3222C35.1515 16.3222 35.5777 16.4171 35.5777 16.9188V17.1451H22.4224V16.9157Z" fill="#FFD983"/>
<path d="M29 14.489C29 14.489 24.7572 16.4887 24.3341 16.6691C23.9102 16.8488 24.0517 17.1443 24.3349 17.1443H33.6449C34.082 17.1443 33.9785 16.8107 33.6316 16.6302C33.2847 16.4506 29 14.489 29 14.489Z" fill="#FFAC33"/>
<path d="M35.5777 17.1444C35.5777 17.2535 35.5343 17.3581 35.4572 17.4353C35.38 17.5125 35.2754 17.5558 35.1662 17.5558H22.833C22.7283 17.5494 22.6299 17.5032 22.558 17.4267C22.4861 17.3503 22.4461 17.2493 22.4461 17.1444C22.4461 17.0394 22.4861 16.9384 22.558 16.862C22.6299 16.7855 22.7283 16.7394 22.833 16.7329L35.1662 16.7352C35.2201 16.735 35.2735 16.7455 35.3234 16.7659C35.3733 16.7864 35.4186 16.8165 35.4568 16.8545C35.495 16.8925 35.5254 16.9376 35.5461 16.9874C35.5669 17.0371 35.5776 17.0905 35.5777 17.1444Z" fill="#FFD983"/>
</g>
<path d="M47.576 18.4V16.336H51.432V28H49.128V18.4H47.576ZM53.6449 22.016C53.6449 20.1707 53.9755 18.7253 54.6369 17.68C55.3089 16.6347 56.4182 16.112 57.9649 16.112C59.5115 16.112 60.6155 16.6347 61.2769 17.68C61.9489 18.7253 62.2849 20.1707 62.2849 22.016C62.2849 23.872 61.9489 25.328 61.2769 26.384C60.6155 27.44 59.5115 27.968 57.9649 27.968C56.4182 27.968 55.3089 27.44 54.6369 26.384C53.9755 25.328 53.6449 23.872 53.6449 22.016ZM60.0769 22.016C60.0769 21.2267 60.0235 20.5653 59.9169 20.032C59.8209 19.488 59.6182 19.0453 59.3089 18.704C59.0102 18.3627 58.5622 18.192 57.9649 18.192C57.3675 18.192 56.9142 18.3627 56.6049 18.704C56.3062 19.0453 56.1035 19.488 55.9969 20.032C55.9009 20.5653 55.8529 21.2267 55.8529 22.016C55.8529 22.8267 55.9009 23.5093 55.9969 24.064C56.0929 24.608 56.2955 25.0507 56.6049 25.392C56.9142 25.7227 57.3675 25.888 57.9649 25.888C58.5622 25.888 59.0155 25.7227 59.3249 25.392C59.6342 25.0507 59.8369 24.608 59.9329 24.064C60.0289 23.5093 60.0769 22.8267 60.0769 22.016Z" fill="white"/>
<defs>
<linearGradient id="paint0_linear_3056_12079" x1="9.56316" y1="7.46429" x2="67.0352" y2="10.8185" gradientUnits="userSpaceOnUse">
<stop stop-color="#6FC5C3"/>
<stop offset="1" stop-color="#CA94DF"/>
</linearGradient>
<clipPath id="clip0_3056_12079">
<rect width="28" height="28" fill="white" transform="translate(15 8)"/>
</clipPath>
</defs>
</svg>
