<svg width="219" height="112" viewBox="0 0 219 112" fill="none" xmlns="http://www.w3.org/2000/svg">
<path d="M18.0809 95.2H45.2809C47.4809 95.2 49.0809 95.4667 50.0809 96C51.0809 96.4667 51.7475 97.2333 52.0809 98.3C52.4142 99.3667 52.5809 100.8 52.5809 102.6C52.5809 104.333 52.4142 105.733 52.0809 106.8C51.7475 107.867 51.1809 108.6 50.3809 109C49.1142 109.667 47.3809 110 45.1809 110H9.18086C4.51419 110 1.78086 108.733 0.98086 106.2C0.58086 105.133 0.38086 103.433 0.38086 101.1V45.5C0.38086 43.9667 0.414193 42.8333 0.480859 42.1C0.614193 41.3 0.947526 40.4 1.48086 39.4C2.41419 37.6 5.01419 36.7 9.28086 36.7C13.9475 36.7 16.7142 37.9333 17.5809 40.4C17.9142 41.5333 18.0809 43.2667 18.0809 45.6V95.2ZM105.868 77.4C105.868 81.4667 104.835 84.5 102.768 86.5C100.768 88.4333 98.535 89.4 96.0684 89.4H72.3684C72.3684 91.2667 73.4684 92.8333 75.6684 94.1C77.8684 95.3667 80.0684 96 82.2684 96C86.135 96 89.1684 95.6 91.3684 94.8L92.4684 94.4C94.0684 93.6667 95.4017 93.3 96.4684 93.3C98.6017 93.3 100.435 94.8 101.968 97.8C102.835 99.6 103.268 101.133 103.268 102.4C103.268 108.333 96.1684 111.3 81.9684 111.3C77.035 111.3 72.635 110.467 68.7684 108.8C64.9684 107.067 62.0017 104.8 59.8684 102C55.6684 96.6 53.5684 90.5667 53.5684 83.9C53.5684 75.5 56.2684 68.8 61.6684 63.8C67.135 58.7333 73.935 56.2 82.0684 56.2C91.335 56.2 98.135 59.4667 102.468 66C104.735 69.4667 105.868 73.2667 105.868 77.4ZM84.7684 80.3C87.3017 80.3 88.5684 79.2333 88.5684 77.1C88.5684 75.5667 87.9684 74.3333 86.7684 73.4C85.635 72.4667 83.9684 72 81.7684 72C79.635 72 77.5017 72.9 75.3684 74.7C73.235 76.4333 72.1684 78.3 72.1684 80.3H84.7684ZM148.893 83.6L159.993 94.8C162.393 97.2 163.593 99.2667 163.593 101C163.593 102.667 162.393 104.7 159.993 107.1C157.593 109.433 155.559 110.6 153.893 110.6C152.226 110.6 150.193 109.4 147.793 107L136.793 95.9L125.693 107C123.293 109.4 121.259 110.6 119.593 110.6C117.993 110.6 115.959 109.433 113.493 107.1C111.093 104.7 109.893 102.667 109.893 101C109.893 99.2667 111.093 97.2 113.493 94.8L124.593 83.6L113.493 72.4C111.093 70 109.893 67.9667 109.893 66.3C109.893 64.5667 111.093 62.5 113.493 60.1C115.959 57.7 117.993 56.5 119.593 56.5C121.259 56.5 123.293 57.7 125.693 60.1L136.793 71.3L147.793 60.1C150.193 57.7 152.226 56.5 153.893 56.5C155.559 56.5 157.593 57.7 159.993 60.1C162.393 62.5 163.593 64.5667 163.593 66.3C163.593 67.9667 162.393 70 159.993 72.4L148.893 83.6ZM169.131 66.1C169.131 64.5667 169.164 63.4333 169.231 62.7C169.364 61.9 169.664 61 170.131 60C171.064 58.2667 173.664 57.4 177.931 57.4C181.131 57.4 183.398 57.9667 184.731 59.1C185.864 60.0333 186.464 61.4667 186.531 63.4C186.598 64.0667 186.631 65.0333 186.631 66.3V101.3C186.631 102.833 186.564 104 186.431 104.8C186.364 105.533 186.064 106.4 185.531 107.4C184.664 109.133 182.098 110 177.831 110C173.631 110 171.064 109.1 170.131 107.3C169.664 106.3 169.364 105.433 169.231 104.7C169.164 103.967 169.131 102.8 169.131 101.2V66.1ZM185.531 47.6C185.064 48.5333 184.198 49.2 182.931 49.6C181.664 50 179.964 50.2 177.831 50.2C175.764 50.2 174.098 50 172.831 49.6C171.564 49.2 170.664 48.5 170.131 47.5C169.664 46.5 169.364 45.6333 169.231 44.9C169.164 44.1 169.131 42.9333 169.131 41.4C169.131 39.8667 169.164 38.7333 169.231 38C169.364 37.2 169.664 36.3333 170.131 35.4C171.064 33.6 173.664 32.7 177.931 32.7C182.131 32.7 184.664 33.6 185.531 35.4C186.064 36.4 186.364 37.3 186.431 38.1C186.564 38.8333 186.631 39.9667 186.631 41.5C186.631 43.0333 186.564 44.2 186.431 45C186.364 45.7333 186.064 46.6 185.531 47.6Z" fill="#6C4A7A"/>
<path d="M208.054 0.442421L209.257 11.6632L218.558 18.0544L207.337 19.2569L200.946 28.5577L199.743 17.3369L190.442 10.9457L201.663 9.7432L208.054 0.442421Z" fill="#F86A13"/>
</svg>